<?xml version="1.0" encoding="UTF-8" standalone="no"?>
<!DOCTYPE svg PUBLIC "-//W3C//DTD SVG 1.1//EN" "http://www.w3.org/Graphics/SVG/1.1/DTD/svg11.dtd">
<svg xmlns="http://www.w3.org/2000/svg" version="1.1" viewBox="0.00 0.00 410.00 123.00">
<path fill="#179dd9" d="
  M 65.13 14.03
  L 63.07 38.99
  A 0.33 0.33 0.0 0 1 62.76 39.30
  L 59.28 39.50
  A 0.33 0.33 0.0 0 1 58.93 39.21
  L 56.35 13.84
  A 0.33 0.33 0.0 0 0 55.98 13.54
  L 50.71 14.20
  A 0.33 0.33 0.0 0 1 50.41 13.67
  L 60.45 0.51
  A 0.33 0.33 0.0 0 1 60.98 0.52
  L 70.12 13.25
  A 0.33 0.33 0.0 0 1 69.85 13.77
  L 65.47 13.72
  A 0.33 0.33 0.0 0 0 65.13 14.03
  Z"
/>
<path fill="#179dd9" d="
  M 76.60 16.15
  Q 74.90 14.69 72.62 14.33
  A 0.55 0.55 0.0 0 1 72.45 13.30
  L 86.36 5.91
  A 0.44 0.44 0.0 0 1 87.00 6.22
  L 90.00 21.51
  A 0.37 0.36 9.5 0 1 89.46 21.89
  L 85.83 19.85
  A 0.70 0.70 0.0 0 0 84.87 20.12
  L 72.90 41.41
  Q 72.68 41.81 72.27 41.62
  L 69.31 40.27
  Q 68.87 40.07 69.03 39.61
  L 76.86 17.12
  Q 77.06 16.55 76.60 16.15
  Z"
/>
<path fill="#a66ca8" d="
  M 36.06 20.32
  L 31.94 22.39
  Q 31.02 22.86 31.25 21.85
  L 34.75 6.58
  Q 34.88 6.00 35.40 6.29
  L 48.56 13.73
  A 0.42 0.42 0.0 0 1 48.52 14.48
  L 44.99 16.00
  Q 44.34 16.28 44.60 16.94
  L 53.26 39.51
  A 2.18 2.18 0.0 0 1 49.36 41.41
  L 36.79 20.53
  A 0.56 0.55 -28.5 0 0 36.06 20.32
  Z"
/>
<path fill="#6cc3ca" d="
  M 100.44 34.02
  L 80.83 48.18
  A 0.32 0.32 0.0 0 1 80.41 48.14
  L 77.87 45.40
  A 0.32 0.32 0.0 0 1 77.87 44.96
  L 94.84 27.52
  A 0.32 0.32 0.0 0 0 94.85 27.09
  L 91.57 23.25
  A 0.32 0.32 0.0 0 1 91.80 22.72
  L 107.60 22.07
  A 0.32 0.32 0.0 0 1 107.93 22.47
  L 104.17 37.45
  A 0.32 0.32 0.0 0 1 103.61 37.57
  L 100.88 34.08
  A 0.32 0.32 0.0 0 0 100.44 34.02
  Z"
/>
<path fill="#a66ca8" d="
  M 21.16 34.61
  L 17.98 38.69
  A 0.32 0.32 0.0 0 1 17.41 38.57
  L 13.87 22.65
  A 0.32 0.32 0.0 0 1 14.22 22.26
  L 29.62 23.61
  A 0.32 0.32 0.0 0 1 29.83 24.15
  L 26.99 27.35
  A 0.32 0.32 0.0 0 0 27.01 27.79
  L 45.72 46.02
  A 0.32 0.32 0.0 0 1 45.75 46.45
  L 43.64 49.20
  A 0.32 0.32 0.0 0 1 43.21 49.27
  L 21.59 34.54
  A 0.32 0.32 0.0 0 0 21.16 34.61
  Z"
/>
<path fill="#d64b94" d="
  M 16.07 46.03
  L 40.42 54.45
  A 0.34 0.34 0.0 0 1 40.64 54.84
  L 39.98 58.19
  A 0.34 0.34 0.0 0 1 39.60 58.46
  L 13.77 54.34
  A 0.34 0.34 0.0 0 0 13.39 54.60
  L 12.26 59.48
  A 0.34 0.34 0.0 0 1 11.66 59.61
  L 1.68 46.95
  A 0.34 0.34 0.0 0 1 1.83 46.42
  L 16.45 40.76
  A 0.34 0.34 0.0 0 1 16.90 41.16
  L 15.85 45.63
  A 0.34 0.34 0.0 0 0 16.07 46.03
  Z"
/>
<path fill="#151412" d="
  M 112.11 76.92
  C 103.57 74.42 100.92 63.75 107.28 57.65
  C 111.64 53.46 118.32 53.33 123.50 56.00
  Q 124.61 56.57 123.95 57.70
  Q 123.71 58.11 123.29 57.89
  C 118.61 55.39 112.51 54.88 108.60 58.96
  C 104.85 62.88 105.04 69.52 108.96 73.21
  C 112.81 76.84 118.88 76.06 123.40 73.65
  Q 123.86 73.41 124.08 73.87
  Q 124.65 75.07 123.31 75.78
  Q 117.92 78.63 112.11 76.92
  Z"
/>
<path fill="#151412" d="
  M 131.85 69.46
  L 128.25 77.08
  A 0.35 0.35 0.0 0 1 127.96 77.28
  L 126.75 77.37
  A 0.35 0.35 0.0 0 1 126.41 76.87
  L 136.99 53.87
  A 0.35 0.35 0.0 0 1 137.63 53.87
  L 148.16 76.76
  A 0.35 0.35 0.0 0 1 147.93 77.24
  L 146.88 77.50
  A 0.35 0.35 0.0 0 1 146.48 77.31
  L 142.73 69.45
  A 0.35 0.35 0.0 0 0 142.41 69.25
  L 132.16 69.26
  A 0.35 0.35 0.0 0 0 131.85 69.46
  Z
  M 132.79 67.32
  A 0.31 0.31 0.0 0 0 133.08 67.75
  L 141.59 67.69
  A 0.31 0.31 0.0 0 0 141.87 67.25
  L 137.55 57.98
  A 0.31 0.31 0.0 0 0 136.98 57.98
  L 132.79 67.32
  Z"
/>
<path fill="#151412" d="
  M 193.36 69.61
  L 189.91 76.89
  A 0.83 0.83 0.0 0 1 188.99 77.35
  L 188.46 77.25
  Q 187.85 77.13 188.11 76.56
  L 198.25 54.76
  A 0.80 0.80 0.0 0 1 199.71 54.76
  L 209.72 76.58
  Q 209.96 77.11 209.40 77.27
  Q 208.84 77.43 208.38 77.25
  Q 207.99 77.11 207.73 76.55
  Q 206.10 73.17 204.56 69.74
  A 0.83 0.82 -12.3 0 0 203.81 69.26
  L 193.91 69.26
  Q 193.53 69.27 193.36 69.61
  Z
  M 194.40 67.23
  A 0.32 0.32 0.0 0 0 194.69 67.68
  L 203.13 67.76
  A 0.32 0.32 0.0 0 0 203.42 67.30
  L 199.28 58.15
  A 0.32 0.32 0.0 0 0 198.70 58.15
  L 194.40 67.23
  Z"
/>
<path fill="#151412" d="
  M 381.11 71.80
  C 384.02 73.71 386.92 76.58 390.04 72.79
  A 1.23 1.22 -29.5 0 0 390.30 71.86
  C 389.48 66.21 381.27 67.07 380.59 60.73
  C 379.89 54.09 387.50 53.15 391.85 55.39
  A 0.89 0.89 0.0 0 1 392.34 56.17
  L 392.41 59.01
  Q 392.42 59.73 391.90 59.24
  Q 389.19 56.72 385.57 57.51
  A 2.43 2.42 60.1 0 0 384.45 61.67
  C 387.25 64.23 391.44 65.32 392.89 68.85
  C 394.17 71.97 393.03 75.34 389.85 76.75
  Q 385.53 78.67 381.16 75.67
  Q 380.76 75.40 380.75 74.92
  L 380.70 72.03
  Q 380.70 71.53 381.11 71.80
  Z"
/>
<path fill="#151412" d="
  M 152.75 67.23
  L 152.93 76.63
  A 0.65 0.65 0.0 0 1 152.24 77.30
  L 151.21 77.25
  Q 150.69 77.22 150.69 76.71
  L 150.69 55.03
  Q 150.69 54.56 151.17 54.55
  C 156.01 54.47 166.45 53.32 164.43 62.13
  C 163.18 67.59 157.20 66.47 153.27 66.67
  Q 152.74 66.70 152.75 67.23
  Z
  M 152.67 56.72
  L 152.83 64.65
  A 0.47 0.47 0.0 0 0 153.31 65.12
  L 157.96 65.03
  A 4.84 4.24 -1.1 0 0 162.71 60.69
  L 162.71 60.29
  A 4.84 4.24 -1.1 0 0 157.78 56.15
  L 153.14 56.24
  A 0.47 0.47 0.0 0 0 152.67 56.72
  Z"
/>
<rect fill="#151412" x="167.89" y="54.48" width="1.84" height="22.96" rx="0.80"/>
<path fill="#151412" d="
  M 182.50 56.56
  L 182.51 76.98
  A 0.33 0.33 0.0 0 1 182.19 77.31
  L 181.11 77.34
  A 0.33 0.33 0.0 0 1 180.77 77.01
  L 180.80 56.56
  A 0.33 0.33 0.0 0 0 180.47 56.23
  L 172.34 56.20
  A 0.33 0.33 0.0 0 1 172.01 55.86
  L 172.06 54.87
  A 0.33 0.33 0.0 0 1 172.39 54.55
  L 190.93 54.53
  A 0.33 0.33 0.0 0 1 191.26 54.86
  L 191.25 55.89
  A 0.33 0.33 0.0 0 1 190.92 56.22
  L 182.83 56.23
  A 0.33 0.33 0.0 0 0 182.50 56.56
  Z"
/>
<path fill="#151412" d="
  M 214.83 75.73
  L 225.39 75.68
  A 0.32 0.32 0.0 0 1 225.71 76.00
  L 225.72 76.95
  A 0.32 0.32 0.0 0 1 225.40 77.27
  L 213.06 77.27
  A 0.32 0.32 0.0 0 1 212.74 76.95
  L 212.74 54.83
  A 0.32 0.32 0.0 0 1 213.05 54.51
  L 214.18 54.46
  A 0.32 0.32 0.0 0 1 214.51 54.78
  L 214.51 75.41
  A 0.32 0.32 0.0 0 0 214.83 75.73
  Z"
/>
<path fill="#151412" d="
  M 241.03 64.07
  L 249.41 63.99
  A 0.50 0.50 0.0 0 1 249.92 64.50
  L 249.85 66.78
  A 0.50 0.50 0.0 0 1 249.35 67.27
  L 241.01 67.27
  A 0.50 0.50 0.0 0 0 240.51 67.77
  L 240.52 73.71
  A 0.50 0.50 0.0 0 0 241.02 74.21
  L 250.22 74.16
  A 0.50 0.50 0.0 0 1 250.72 74.68
  L 250.63 76.75
  A 0.50 0.50 0.0 0 1 250.13 77.23
  L 237.76 77.24
  A 0.50 0.50 0.0 0 1 237.26 76.74
  L 237.24 55.03
  A 0.50 0.50 0.0 0 1 237.74 54.53
  L 249.69 54.54
  A 0.50 0.50 0.0 0 1 250.19 55.03
  L 250.21 57.04
  A 0.50 0.50 0.0 0 1 249.71 57.55
  L 241.02 57.52
  A 0.50 0.50 0.0 0 0 240.52 58.02
  L 240.52 63.57
  A 0.50 0.50 0.0 0 0 241.03 64.07
  Z"
/>
<path fill="#151412" d="
  M 257.04 60.50
  L 257.19 76.50
  Q 257.20 77.20 256.50 77.21
  L 254.38 77.22
  Q 253.79 77.23 253.79 76.63
  L 253.85 55.90
  A 1.71 1.71 0.0 0 1 256.85 54.78
  L 271.23 71.24
  Q 271.90 72.00 271.89 70.99
  L 271.75 55.02
  Q 271.75 54.53 272.24 54.52
  L 274.34 54.51
  Q 274.92 54.51 274.92 55.09
  L 274.91 75.53
  A 1.83 1.83 0.0 0 1 271.71 76.73
  L 257.37 60.37
  Q 257.03 59.98 257.04 60.50
  Z"
/>
<path fill="#151412" d="
  M 288.97 57.92
  L 289.01 76.80
  A 0.40 0.40 0.0 0 1 288.61 77.21
  L 285.94 77.24
  A 0.40 0.40 0.0 0 1 285.53 76.84
  L 285.53 57.94
  A 0.40 0.40 0.0 0 0 285.13 57.54
  L 278.12 57.52
  A 0.40 0.40 0.0 0 1 277.72 57.12
  L 277.73 54.93
  A 0.40 0.40 0.0 0 1 278.13 54.53
  L 296.33 54.54
  A 0.40 0.40 0.0 0 1 296.73 54.96
  L 296.62 57.16
  A 0.40 0.40 0.0 0 1 296.22 57.54
  L 289.37 57.52
  A 0.40 0.40 0.0 0 0 288.97 57.92
  Z"
/>
<path fill="#151412" d="
  M 303.06 57.97
  L 303.06 63.58
  Q 303.06 64.11 303.59 64.10
  L 311.63 63.98
  Q 312.28 63.97 312.28 64.63
  L 312.28 66.75
  Q 312.28 67.27 311.75 67.27
  L 303.52 67.26
  Q 303.05 67.26 303.05 67.73
  L 303.05 73.74
  Q 303.05 74.20 303.51 74.21
  Q 307.33 74.32 311.05 74.14
  Q 312.49 74.08 312.86 74.52
  Q 313.40 75.19 312.97 76.87
  A 0.50 0.50 0.0 0 1 312.49 77.24
  L 300.23 77.22
  A 0.49 0.49 0.0 0 1 299.74 76.73
  L 299.72 55.03
  Q 299.72 54.54 300.22 54.54
  L 312.12 54.53
  A 0.60 0.59 89.5 0 1 312.71 55.12
  L 312.72 57.04
  Q 312.72 57.55 312.21 57.54
  L 303.53 57.50
  Q 303.06 57.50 303.06 57.97
  Z"
/>
<path fill="#151412" d="
  M 319.69 67.78
  L 319.72 76.77
  Q 319.72 77.26 319.23 77.26
  L 317.05 77.24
  A 0.70 0.69 0.4 0 1 316.36 76.55
  L 316.35 55.25
  Q 316.35 54.78 316.80 54.73
  Q 323.02 54.00 324.80 54.70
  Q 331.79 57.45 328.68 64.44
  Q 328.50 64.84 328.12 65.05
  L 326.95 65.70
  Q 326.36 66.02 326.74 66.57
  L 333.65 76.59
  Q 334.14 77.31 333.27 77.28
  L 330.29 77.19
  A 0.92 0.90 -12.1 0 1 329.51 76.70
  Q 327.19 72.18 323.80 68.50
  C 322.79 67.41 321.58 67.16 320.19 67.25
  Q 319.69 67.28 319.69 67.78
  Z
  M 319.68 57.69
  L 319.72 64.07
  A 0.43 0.43 0.0 0 0 320.15 64.50
  L 321.44 64.49
  A 4.90 3.52 -0.3 0 0 326.32 60.94
  L 326.32 60.74
  A 4.90 3.52 -0.3 0 0 321.40 57.25
  L 320.11 57.26
  A 0.43 0.43 0.0 0 0 319.68 57.69
  Z"
/>
<path fill="#151412" d="
  M 339.51 67.99
  L 339.54 76.61
  Q 339.54 77.26 338.89 77.26
  L 336.89 77.26
  Q 336.27 77.26 336.27 76.64
  L 336.27 55.02
  Q 336.27 54.58 336.71 54.56
  C 340.38 54.43 345.77 53.83 348.57 56.12
  C 352.02 58.97 350.99 65.58 346.40 66.95
  C 344.72 67.46 342.25 67.21 340.19 67.28
  Q 339.50 67.30 339.51 67.99
  Z
  M 339.48 58.07
  L 339.52 63.81
  A 0.54 0.54 0.0 0 0 340.06 64.34
  L 343.72 64.32
  A 3.36 3.00 -0.4 0 0 347.06 61.29
  L 347.06 60.47
  A 3.36 3.00 -0.4 0 0 343.68 57.50
  L 340.02 57.52
  A 0.54 0.54 0.0 0 0 339.48 58.07
  Z"
/>
<path fill="#151412" d="
  M 356.66 67.77
  L 356.74 76.16
  A 1.10 1.09 -88.5 0 1 355.58 77.27
  L 353.95 77.17
  A 0.58 0.58 0.0 0 1 353.41 76.58
  L 353.46 55.21
  Q 353.46 54.60 354.07 54.56
  C 355.88 54.43 357.28 54.51 359.62 54.49
  C 366.07 54.45 369.51 61.85 363.76 65.93
  Q 363.42 66.17 363.65 66.51
  L 370.38 76.35
  Q 370.72 76.84 370.15 77.03
  C 363.95 78.99 364.19 66.81 357.16 67.23
  A 0.53 0.53 0.0 0 0 356.66 67.77
  Z
  M 356.70 57.82
  L 356.68 63.88
  A 0.49 0.49 0.0 0 0 357.17 64.38
  L 358.75 64.38
  A 4.45 3.30 0.1 0 0 363.21 61.09
  L 363.21 60.65
  A 4.45 3.30 0.1 0 0 358.77 57.34
  L 357.19 57.34
  A 0.49 0.49 0.0 0 0 356.70 57.82
  Z"
/>
<rect fill="#151412" x="-1.66" y="-11.35" transform="translate(375.18,65.87) rotate(-0.1)" width="3.32" height="22.70" rx="0.69"/>
<path fill="#151412" d="
  M 410.00 54.73
  L 410.00 55.75
  L 409.73 56.97
  Q 409.61 57.53 409.04 57.53
  L 400.69 57.53
  A 0.55 0.54 -89.5 0 0 400.15 58.07
  L 400.06 63.56
  Q 400.05 64.07 400.56 64.07
  L 408.80 63.99
  Q 409.37 63.98 409.38 64.55
  L 409.40 66.68
  Q 409.41 67.27 408.82 67.27
  L 400.67 67.28
  Q 400.11 67.28 400.11 67.83
  L 400.09 73.80
  Q 400.09 74.24 400.54 74.24
  L 410.00 74.26
  L 410.00 76.99
  L 397.20 77.18
  Q 396.74 77.19 396.74 76.73
  L 396.73 55.03
  Q 396.73 54.58 397.18 54.59
  L 410.00 54.73
  Z"
/>
<path fill="#d64b94" d="
  M 13.07 66.67
  L 39.53 63.94
  A 0.33 0.33 0.0 0 1 39.89 64.24
  L 40.24 67.55
  A 0.33 0.33 0.0 0 1 40.00 67.91
  L 14.70 75.11
  A 0.33 0.33 0.0 0 0 14.47 75.50
  L 15.57 80.49
  A 0.33 0.33 0.0 0 1 15.10 80.85
  L 0.64 73.47
  A 0.33 0.33 0.0 0 1 0.55 72.95
  L 11.57 61.59
  A 0.33 0.33 0.0 0 1 12.14 61.78
  L 12.71 66.38
  A 0.33 0.33 0.0 0 0 13.07 66.67
  Z"
/>
<path fill="#e54239" d="
  M 27.54 98.63
  L 11.37 97.87
  A 0.32 0.32 0.0 0 1 11.08 97.44
  L 16.25 82.65
  A 0.32 0.32 0.0 0 1 16.82 82.59
  L 19.20 86.51
  A 0.32 0.32 0.0 0 0 19.64 86.61
  L 42.26 72.94
  A 0.32 0.32 0.0 0 1 42.70 73.04
  L 44.60 76.01
  A 0.32 0.32 0.0 0 1 44.54 76.42
  L 24.72 93.59
  A 0.32 0.32 0.0 0 0 24.67 94.03
  L 27.81 98.11
  A 0.32 0.32 0.0 0 1 27.54 98.63
  Z"
/>
<path fill="#f4d01c" d="
  M 92.78 98.27
  L 76.61 79.81
  A 0.33 0.33 0.0 0 1 76.63 79.35
  L 79.48 76.70
  A 0.33 0.33 0.0 0 1 79.91 76.68
  L 98.86 92.10
  A 0.33 0.33 0.0 0 0 99.31 92.07
  L 102.71 88.36
  A 0.33 0.33 0.0 0 1 103.28 88.53
  L 105.55 104.58
  A 0.33 0.33 0.0 0 1 105.17 104.95
  L 89.69 102.45
  A 0.33 0.33 0.0 0 1 89.51 101.89
  L 92.77 98.73
  A 0.33 0.33 0.0 0 0 92.78 98.27
  Z"
/>
<path fill="#e54239" d="
  M 41.68 106.51
  L 46.18 108.97
  A 0.33 0.33 0.0 0 1 46.15 109.56
  L 31.45 115.67
  A 0.33 0.33 0.0 0 1 31.00 115.41
  L 29.08 99.88
  A 0.33 0.33 0.0 0 1 29.58 99.56
  L 33.55 102.00
  A 0.33 0.33 0.0 0 0 34.00 101.91
  L 48.70 80.38
  A 0.33 0.33 0.0 0 1 49.14 80.28
  L 52.17 82.05
  A 0.33 0.33 0.0 0 1 52.31 82.47
  L 41.54 106.08
  A 0.33 0.33 0.0 0 0 41.68 106.51
  Z"
/>
<path fill="#f19224" d="
  M 83.09 105.65
  L 87.90 103.84
  A 0.33 0.33 0.0 0 1 88.33 104.24
  L 83.57 119.65
  A 0.33 0.33 0.0 0 1 83.07 119.83
  L 70.14 111.02
  A 0.33 0.33 0.0 0 1 70.21 110.44
  L 74.38 108.88
  A 0.33 0.33 0.0 0 0 74.59 108.48
  L 67.71 84.33
  A 0.33 0.33 0.0 0 1 67.91 83.93
  L 71.28 82.67
  A 0.33 0.33 0.0 0 1 71.69 82.83
  L 82.68 105.49
  A 0.33 0.33 0.0 0 0 83.09 105.65
  Z"
/>
<path fill="#f19224" d="
  M 57.09 123.00
  L 56.38 123.00
  L 48.65 109.98
  A 0.77 0.76 -11.2 0 1 49.42 108.84
  L 52.74 109.30
  Q 53.42 109.39 53.53 108.72
  L 57.46 84.81
  Q 57.54 84.31 58.04 84.36
  L 61.33 84.67
  Q 61.72 84.70 61.72 85.09
  L 62.07 109.30
  A 0.90 0.90 0.0 0 0 62.95 110.19
  L 67.46 110.28
  Q 68.24 110.30 67.73 110.88
  L 57.09 123.00
  Z"
/>
</svg>
