<?xml version="1.0" encoding="UTF-8" standalone="no"?>
<!DOCTYPE svg PUBLIC "-//W3C//DTD SVG 1.1//EN" "http://www.w3.org/Graphics/SVG/1.1/DTD/svg11.dtd">
<svg xmlns="http://www.w3.org/2000/svg" version="1.1" viewBox="0.00 0.00 393.00 262.00">
<g stroke-width="2.00" fill="none" stroke-linecap="butt">
<path stroke="#4e4c4c" vector-effect="non-scaling-stroke" d="
  M 37.72 116.06
  L 11.94 116.09"
/>
<path stroke="#656263" vector-effect="non-scaling-stroke" d="
  M 37.67 142.51
  Q 37.57 142.42 37.50 142.29
  Q 37.39 142.08 37.14 142.08
  L 11.96 142.11"
/>
</g>
<path fill="#787878" d="
  M 37.72 116.06
  L 11.94 116.09
  L 11.95 65.65
  A 0.51 0.51 0.0 0 1 12.46 65.14
  L 37.02 65.08
  A 0.68 0.67 0.0 0 1 37.70 65.75
  L 37.72 116.06
  Z"
/>
<path fill="#231f20" d="
  M 37.72 116.06
  L 88.34 116.15
  A 0.58 0.58 0.0 0 1 88.92 116.73
  L 88.94 192.56
  Q 88.94 193.06 88.44 193.06
  L 64.13 193.07
  A 0.81 0.81 0.0 0 1 63.32 192.26
  L 63.31 142.54
  Q 63.31 142.02 62.79 142.02
  L 38.18 142.05
  Q 37.93 142.05 37.75 142.23
  Q 37.57 142.41 37.67 142.51
  Q 37.57 142.42 37.50 142.29
  Q 37.39 142.08 37.14 142.08
  L 11.96 142.11
  L 11.94 116.09
  L 37.72 116.06
  Z"
/>
<path fill="#231f20" d="
  M 119.71 128.90
  Q 123.56 124.63 129.54 125.58
  C 135.40 126.51 136.15 130.56 136.24 136.03
  Q 136.36 143.61 136.24 151.24
  Q 136.24 151.76 135.72 151.76
  L 132.53 151.74
  Q 131.91 151.74 131.91 151.12
  Q 131.95 142.91 131.92 134.75
  Q 131.90 128.91 125.99 129.43
  C 120.37 129.92 119.33 133.47 119.31 138.67
  Q 119.29 144.92 119.32 151.19
  Q 119.32 151.76 118.74 151.76
  L 115.58 151.73
  Q 114.94 151.73 114.94 151.08
  L 114.96 116.77
  Q 114.96 116.24 115.48 116.23
  L 118.72 116.15
  A 0.57 0.56 89.0 0 1 119.30 116.72
  L 119.28 128.74
  A 0.25 0.24 -24.1 0 0 119.71 128.90
  Z"
/>
<path fill="#231f20" d="
  M 157.54 149.36
  C 152.75 152.98 141.32 154.69 140.69 145.83
  C 140.09 137.50 148.93 137.24 154.75 136.34
  Q 156.51 136.07 157.66 134.86
  Q 158.01 134.49 158.02 133.99
  C 158.09 129.37 154.29 129.07 150.79 129.30
  Q 147.02 129.54 145.80 133.51
  Q 145.62 134.09 145.02 134.09
  L 142.27 134.09
  Q 141.67 134.09 141.72 133.49
  Q 141.94 130.54 143.73 128.53
  C 147.34 124.49 159.71 124.02 161.79 129.61
  Q 162.23 130.80 162.24 132.95
  Q 162.27 140.18 162.26 147.41
  A 1.12 1.08 22.3 0 0 162.61 148.21
  Q 163.31 148.87 164.11 148.42
  A 0.50 0.50 0.0 0 1 164.85 148.85
  L 164.87 151.15
  Q 164.87 151.63 164.43 151.83
  Q 159.84 153.80 158.16 149.53
  Q 157.96 149.04 157.54 149.36
  Z
  M 152.26 148.34
  Q 159.34 146.63 157.86 139.31
  Q 157.78 138.87 157.34 138.97
  Q 153.49 139.90 149.58 140.54
  C 142.08 141.77 144.68 150.17 152.26 148.34
  Z"
/>
<path fill="#231f20" d="
  M 206.65 149.02
  Q 199.83 154.77 192.50 151.12
  Q 189.84 149.80 189.69 145.74
  C 189.29 134.87 200.54 139.09 206.30 135.21
  Q 206.73 134.91 206.83 134.40
  Q 207.56 130.58 203.53 129.61
  Q 196.78 127.98 194.45 133.61
  Q 194.25 134.08 193.74 134.09
  L 191.04 134.16
  Q 190.61 134.17 190.63 133.73
  C 191.05 125.56 200.93 124.09 207.02 126.24
  Q 211.04 127.66 211.08 132.87
  Q 211.13 139.69 211.08 146.51
  Q 211.07 147.65 211.47 148.13
  Q 212.09 148.86 213.22 148.37
  Q 213.89 148.08 213.91 148.81
  L 213.96 151.08
  Q 213.97 151.70 213.39 151.90
  C 210.84 152.79 207.41 152.68 207.24 149.28
  Q 207.21 148.56 206.65 149.02
  Z
  M 206.75 139.11
  A 0.26 0.26 0.0 0 0 206.43 138.90
  Q 202.90 139.81 199.15 140.41
  C 195.34 141.01 192.94 142.83 194.69 146.93
  Q 194.89 147.41 195.37 147.63
  C 201.87 150.56 208.15 146.64 206.75 139.11
  Z"
/>
<path fill="#231f20" d="
  M 219.96 144.25
  C 221.30 150.02 232.86 149.93 232.95 144.84
  C 233.06 137.94 215.02 142.91 216.34 132.09
  C 217.43 123.06 235.87 122.84 236.18 133.03
  Q 236.19 133.56 235.66 133.56
  L 232.83 133.56
  Q 232.28 133.56 232.11 133.03
  C 230.87 128.92 225.67 128.54 222.42 130.01
  A 2.69 2.68 73.1 0 0 220.88 132.91
  C 221.41 135.92 228.04 136.69 231.50 137.52
  C 236.13 138.63 239.00 142.69 236.97 147.34
  C 233.67 154.91 216.52 154.39 215.75 144.24
  A 0.51 0.51 0.0 0 1 216.26 143.69
  L 219.26 143.70
  A 0.72 0.71 -6.6 0 1 219.96 144.25
  Z"
/>
<path fill="#231f20" d="
  M 177.22 146.75
  L 183.86 126.37
  A 0.30 0.30 0.0 0 1 184.14 126.16
  L 188.00 126.04
  A 0.30 0.30 0.0 0 1 188.29 126.45
  L 179.14 151.56
  A 0.30 0.30 0.0 0 1 178.86 151.76
  L 174.66 151.75
  A 0.30 0.30 0.0 0 1 174.38 151.55
  L 165.08 126.47
  A 0.30 0.30 0.0 0 1 165.36 126.06
  L 169.54 126.10
  A 0.30 0.30 0.0 0 1 169.82 126.30
  L 176.65 146.75
  A 0.30 0.30 0.0 0 0 177.22 146.75
  Z"
/>
<path fill="#a7a5a6" d="
  M 37.67 142.51
  L 37.70 192.55
  Q 37.70 193.03 37.21 193.03
  L 12.52 193.02
  Q 11.98 193.02 11.98 192.48
  L 11.96 142.11
  L 37.14 142.08
  Q 37.39 142.08 37.50 142.29
  Q 37.57 142.42 37.67 142.51
  Z"
/>
<path fill="#787878" d="
  M 203.04 169.74
  L 203.00 158.31
  Q 202.99 157.62 203.69 157.62
  L 206.71 157.64
  Q 207.27 157.65 207.27 158.21
  L 207.27 192.52
  Q 207.27 193.05 206.73 193.05
  L 203.86 193.03
  Q 203.19 193.03 203.16 192.36
  L 203.11 191.25
  A 0.51 0.51 0.0 0 0 202.26 190.90
  C 195.95 196.61 186.16 193.59 183.72 185.50
  C 181.62 178.57 183.27 170.33 190.56 167.53
  Q 196.57 165.22 202.53 169.99
  Q 203.05 170.40 203.04 169.74
  Z
  M 195.5259 190.1461
  A 9.88 8.09 88.4 0 0 203.3368 180.0441
  A 9.88 8.09 88.4 0 0 194.9741 170.3939
  A 9.88 8.09 88.4 0 0 187.1632 180.4959
  A 9.88 8.09 88.4 0 0 195.5259 190.1461
  Z"
/>
<rect fill="#787878" x="-2.05" y="-2.55" transform="translate(216.18,160.18) rotate(-0.2)" width="4.10" height="5.10" rx="0.56"/>
<path fill="#787878" d="
  M 134.98 170.50
  C 139.87 165.16 151.14 165.02 151.24 174.25
  Q 151.33 183.39 151.21 192.54
  Q 151.20 193.07 150.68 193.07
  L 147.48 193.05
  Q 146.83 193.05 146.83 192.40
  Q 146.86 183.55 146.80 174.75
  C 146.77 169.16 138.48 169.66 136.28 173.26
  Q 135.27 174.90 135.29 178.91
  Q 135.32 185.73 135.27 192.54
  Q 135.27 193.09 134.71 193.08
  L 131.55 193.02
  Q 130.94 193.01 130.94 192.40
  Q 130.94 183.54 130.87 174.75
  C 130.83 168.85 122.70 169.93 120.35 173.71
  Q 119.27 175.43 119.28 179.52
  Q 119.29 186.02 119.26 192.53
  Q 119.26 193.08 118.71 193.07
  L 115.64 193.03
  Q 115.01 193.02 115.01 192.39
  L 114.99 167.97
  Q 114.99 167.43 115.53 167.43
  L 118.66 167.46
  Q 119.10 167.47 119.06 167.91
  L 118.83 170.08
  A 0.44 0.43 -19.6 0 0 119.57 170.43
  C 124.10 165.91 130.35 165.04 134.34 170.47
  Q 134.63 170.88 134.98 170.50
  Z"
/>
<path fill="#787878" d="
  M 161.01 181.63
  A 0.46 0.45 88.8 0 0 160.56 182.11
  C 160.87 190.57 172.22 193.33 175.24 185.53
  Q 175.45 184.99 176.03 184.99
  L 178.78 184.97
  Q 179.49 184.96 179.30 185.65
  Q 177.07 193.72 168.26 193.69
  C 157.29 193.64 153.62 181.62 157.70 173.24
  C 161.49 165.46 173.92 164.28 177.88 172.37
  Q 179.89 176.46 180.02 180.95
  A 0.66 0.66 0.0 0 1 179.36 181.63
  L 161.01 181.63
  Z
  M 160.78 178.02
  L 175.18 178.00
  A 0.15 0.15 0.0 0 0 175.33 177.85
  L 175.33 177.79
  A 7.30 7.23 -0.1 0 0 168.01 170.57
  L 167.91 170.57
  A 7.30 7.23 -0.1 0 0 160.63 177.81
  L 160.63 177.87
  A 0.15 0.15 0.0 0 0 160.78 178.02
  Z"
/>
<path fill="#787878" d="
  M 240.44 190.56
  C 235.68 194.39 224.43 196.02 223.47 187.46
  C 222.49 178.73 232.52 178.58 238.20 177.72
  Q 239.59 177.51 240.47 176.20
  C 244.22 170.59 230.08 167.46 228.69 174.77
  A 0.73 0.73 0.0 0 1 227.97 175.37
  L 225.15 175.39
  Q 224.58 175.40 224.61 174.83
  C 225.05 166.14 236.49 165.44 242.09 168.12
  C 244.28 169.16 244.85 171.72 244.88 174.21
  Q 244.95 181.63 244.89 189.03
  A 0.67 0.66 -81.9 0 0 245.36 189.67
  L 247.05 190.16
  Q 247.47 190.28 247.60 190.71
  C 248.78 194.63 242.18 195.04 241.11 190.78
  Q 240.95 190.15 240.44 190.56
  Z
  M 228.82 188.69
  C 234.60 192.55 242.43 188.20 240.76 180.68
  Q 240.67 180.26 240.24 180.34
  C 236.05 181.12 226.25 180.99 228.27 187.93
  Q 228.41 188.41 228.82 188.69
  Z"
/>
<path fill="#787878" d="
  M 277.35 189.89
  Q 271.98 194.96 266.10 192.92
  C 252.94 188.35 256.63 164.51 272.03 166.97
  Q 274.87 167.42 277.13 170.21
  A 0.37 0.36 25.4 0 0 277.78 169.98
  L 277.77 168.21
  Q 277.76 167.43 278.54 167.43
  L 281.18 167.45
  Q 281.80 167.45 281.80 168.08
  Q 281.77 177.80 281.77 187.50
  C 281.76 195.68 280.94 202.91 271.60 203.52
  C 265.97 203.88 261.25 202.84 259.14 197.17
  A 0.71 0.71 0.0 0 1 259.80 196.21
  L 262.19 196.19
  Q 262.69 196.19 263.00 196.59
  C 268.93 204.23 278.66 199.36 277.78 190.05
  Q 277.73 189.53 277.35 189.89
  Z
  M 269.8220 189.8271
  A 9.74 7.65 91.4 0 0 277.7077 180.2769
  A 9.74 7.65 91.4 0 0 270.2980 170.3529
  A 9.74 7.65 91.4 0 0 262.4123 179.9031
  A 9.74 7.65 91.4 0 0 269.8220 189.8271
  Z"
/>
<path fill="#787878" d="
  M 292.68 171.69
  Q 295.32 167.00 300.79 166.82
  Q 301.53 166.80 301.53 167.53
  L 301.53 170.53
  Q 301.53 171.14 300.92 171.20
  Q 291.97 172.00 292.13 181.28
  Q 292.23 186.84 292.28 192.49
  Q 292.28 193.06 291.72 193.06
  L 288.53 193.09
  Q 287.97 193.09 287.97 192.53
  L 287.95 167.99
  Q 287.95 167.43 288.52 167.43
  L 291.63 167.46
  Q 292.06 167.46 292.04 167.88
  L 291.87 171.46
  A 0.43 0.43 0.0 0 0 292.68 171.69
  Z"
/>
<path fill="#787878" d="
  M 314.8862 193.9400
  A 13.66 12.69 90.1 0 1 302.2200 180.2579
  A 13.66 12.69 90.1 0 1 314.9338 166.6200
  A 13.66 12.69 90.1 0 1 327.6000 180.3021
  A 13.66 12.69 90.1 0 1 314.8862 193.9400
  Z
  M 314.9886 190.1098
  A 9.83 8.13 89.6 0 0 323.0498 180.2232
  A 9.83 8.13 89.6 0 0 314.8514 170.4502
  A 9.83 8.13 89.6 0 0 306.7902 180.3368
  A 9.83 8.13 89.6 0 0 314.9886 190.1098
  Z"
/>
<path fill="#787878" d="
  M 364.46 191.01
  L 364.49 202.41
  A 0.66 0.66 0.0 0 1 363.84 203.07
  L 360.79 203.09
  Q 360.25 203.09 360.25 202.54
  L 360.24 168.10
  Q 360.24 167.45 360.90 167.45
  L 363.87 167.46
  Q 364.52 167.46 364.51 168.12
  L 364.50 169.53
  Q 364.49 170.57 365.20 169.81
  Q 367.47 167.38 371.00 166.95
  C 390.88 164.52 388.40 200.48 367.96 192.62
  C 366.98 192.25 366.08 191.21 365.06 190.65
  Q 364.46 190.33 364.46 191.01
  Z
  M 372.4739 190.1675
  A 9.87 8.07 88.7 0 0 380.3179 180.1169
  A 9.87 8.07 88.7 0 0 372.0261 170.4325
  A 9.87 8.07 88.7 0 0 364.1821 180.4831
  A 9.87 8.07 88.7 0 0 372.4739 190.1675
  Z"
/>
<rect fill="#787878" x="214.12" y="167.45" width="4.12" height="25.58" rx="0.45"/>
<path fill="#787878" d="
  M 349.86 190.25
  A 0.42 0.42 0.0 0 0 349.11 189.99
  C 344.26 196.14 332.60 195.09 332.52 185.49
  Q 332.46 176.79 332.43 168.06
  Q 332.43 167.43 333.06 167.44
  L 336.03 167.46
  Q 336.64 167.47 336.63 168.08
  Q 336.52 176.01 336.63 183.90
  C 336.70 187.98 338.47 190.49 342.75 189.96
  Q 349.39 189.14 349.44 182.24
  Q 349.49 175.13 349.51 167.98
  Q 349.51 167.44 350.05 167.45
  L 353.23 167.47
  Q 353.75 167.47 353.75 167.98
  L 353.72 192.53
  Q 353.72 193.04 353.22 193.04
  L 350.59 193.08
  A 0.73 0.73 0.0 0 1 349.85 192.34
  L 349.86 190.25
  Z"
/>
</svg>
