<?xml version="1.0" encoding="UTF-8" standalone="no"?>
<!DOCTYPE svg PUBLIC "-//W3C//DTD SVG 1.1//EN" "http://www.w3.org/Graphics/SVG/1.1/DTD/svg11.dtd">
<svg xmlns="http://www.w3.org/2000/svg" version="1.1" viewBox="0.00 0.00 267.00 189.00">
<path fill="#000000" d="
  M 69.03 23.02
  Q 75.76 25.79 80.11 31.65
  Q 80.50 32.17 79.90 31.93
  C 62.14 24.82 48.91 39.91 31.22 36.77
  C 14.24 33.75 3.67 19.88 3.89 2.48
  Q 3.94 -1.72 4.79 2.39
  C 7.30 14.55 20.68 21.19 32.07 21.58
  Q 32.84 21.61 32.17 21.98
  C 28.57 24.01 25.42 24.49 21.41 25.03
  Q 20.96 25.09 21.39 25.22
  Q 23.76 25.97 24.52 25.83
  C 38.71 23.17 50.53 16.54 64.80 9.26
  Q 70.25 6.47 77.21 5.97
  Q 83.41 5.52 89.66 7.57
  C 108.80 13.85 117.31 29.65 120.89 48.82
  Q 122.36 56.72 123.23 58.47
  C 125.47 62.96 131.27 67.71 136.62 64.99
  Q 144.00 61.24 145.22 52.83
  Q 146.48 44.08 149.34 35.69
  C 155.89 16.46 174.81 1.84 195.73 7.02
  C 199.49 7.95 204.41 10.32 208.68 12.52
  C 219.23 17.96 229.02 22.95 240.30 25.45
  C 242.37 25.91 244.15 25.61 246.16 25.18
  A 0.06 0.06 0.0 0 0 246.16 25.07
  C 241.82 24.42 238.56 24.23 234.63 21.98
  Q 234.06 21.65 234.72 21.62
  C 246.17 21.10 256.88 15.74 261.35 4.69
  C 261.76 3.67 261.94 2.43 262.28 1.25
  Q 262.43 0.70 262.59 1.25
  Q 263.11 3.11 263.02 5.00
  C 262.25 21.87 250.28 35.31 233.30 36.98
  C 216.66 38.62 204.36 25.43 187.02 31.81
  Q 186.46 32.02 186.82 31.54
  Q 191.14 25.72 197.87 22.99
  Q 198.34 22.79 197.90 22.52
  Q 197.72 22.41 197.50 22.49
  Q 185.10 26.64 179.31 38.33
  Q 173.21 50.64 170.10 68.74
  A 0.72 0.71 2.1 0 1 169.46 69.33
  C 165.51 69.64 161.16 68.17 161.12 74.11
  C 161.10 77.26 159.89 84.21 165.32 83.65
  Q 166.23 83.55 165.79 84.36
  L 160.87 93.28
  Q 160.27 94.36 160.25 93.13
  Q 160.08 78.86 160.19 73.75
  Q 160.28 69.48 156.26 69.39
  Q 151.90 69.28 147.92 69.43
  A 3.56 3.55 -1.1 0 0 144.50 72.98
  L 144.51 113.75
  A 3.26 3.25 -89.9 0 0 147.75 117.01
  L 157.23 117.02
  A 3.00 2.99 -0.1 0 0 160.23 114.02
  L 160.22 99.76
  Q 160.22 99.22 160.55 98.80
  L 162.08 96.79
  Q 162.37 96.41 162.72 96.73
  C 166.50 100.21 174.54 103.35 171.87 110.10
  C 169.80 115.33 169.36 117.36 169.70 122.95
  Q 170.07 128.94 165.05 130.88
  C 161.96 132.07 158.77 130.11 155.94 133.35
  C 152.54 137.25 154.28 143.76 156.03 148.23
  C 157.03 150.79 156.33 154.24 154.91 156.89
  Q 149.91 166.19 144.72 175.36
  Q 144.13 176.41 144.08 175.21
  L 143.52 162.20
  Q 143.51 161.96 143.32 162.12
  Q 143.21 162.21 143.13 162.32
  Q 143.05 162.43 143.03 162.59
  Q 141.85 169.71 142.18 176.94
  C 142.38 181.26 140.23 187.14 135.84 188.66
  Q 135.25 188.87 135.36 188.25
  Q 136.39 182.84 133.61 178.14
  A 0.28 0.28 0.0 0 0 133.13 178.15
  Q 130.55 182.87 131.40 188.27
  Q 131.48 188.82 130.95 188.66
  C 126.48 187.28 124.75 181.44 124.83 177.30
  Q 124.97 170.38 124.05 163.50
  Q 124.00 163.13 123.79 162.97
  Q 123.44 162.70 123.41 163.15
  L 122.73 175.22
  Q 122.67 176.37 122.10 175.36
  Q 116.42 165.36 111.03 155.25
  C 109.66 152.69 110.66 149.40 111.74 145.71
  C 113.17 140.83 114.01 134.34 108.54 131.75
  C 106.24 130.65 103.40 131.87 100.76 130.42
  C 96.96 128.34 96.54 122.34 97.39 118.64
  A 1.46 1.42 -51.5 0 0 97.30 117.72
  Q 96.64 116.28 97.43 114.97
  Q 97.70 114.52 97.70 113.99
  L 97.69 102.32
  A 0.94 0.93 71.3 0 1 98.05 101.58
  L 103.95 96.98
  Q 104.36 96.66 104.71 97.04
  L 108.09 100.67
  Q 108.48 101.09 109.01 101.27
  C 109.98 101.60 110.31 101.71 111.12 102.37
  Q 118.39 108.34 125.70 114.26
  Q 129.22 117.10 131.88 117.52
  C 136.80 118.30 140.83 115.06 140.85 109.98
  Q 140.92 90.69 140.87 72.06
  A 2.89 2.89 0.0 0 0 137.97 69.18
  L 128.71 69.19
  A 3.10 3.09 90.0 0 0 125.62 72.29
  L 125.64 94.28
  A 0.27 0.27 0.0 0 1 125.20 94.49
  L 98.09 72.63
  A 1.35 1.33 -77.2 0 1 97.61 71.85
  C 95.01 59.60 92.04 46.73 86.22 36.05
  Q 80.69 25.90 69.17 22.62
  A 0.21 0.21 0.0 0 0 69.03 23.02
  Z"
/>
<path fill="#000000" d="
  M 94.22 84.78
  L 94.23 113.03
  Q 94.23 113.54 93.72 113.54
  L 86.29 113.53
  Q 85.80 113.53 85.80 113.04
  Q 85.79 95.94 85.79 78.88
  C 85.79 75.36 86.37 72.26 90.52 72.45
  C 92.67 72.54 94.15 73.99 95.84 75.35
  Q 112.07 88.45 128.59 101.75
  A 0.34 0.34 0.0 0 0 129.14 101.49
  L 129.10 73.14
  A 0.51 0.50 0.0 0 1 129.61 72.64
  L 137.02 72.61
  Q 137.44 72.60 137.44 73.02
  L 137.43 111.07
  Q 137.43 111.66 137.05 112.10
  C 133.99 115.63 130.75 113.93 127.61 111.32
  Q 111.31 97.77 94.76 84.53
  Q 94.22 84.10 94.22 84.78
  Z"
/>
<rect fill="#000000" x="3.80" y="72.98" width="8.92" height="40.56" rx="0.42"/>
<path fill="#000000" d="
  M 67.02 96.00
  L 45.50 96.00
  Q 45.00 96.00 45.00 95.50
  L 45.00 90.47
  A 0.54 0.53 90.0 0 1 45.53 89.93
  L 75.95 89.93
  A 0.52 0.52 0.0 0 1 76.47 90.45
  L 76.47 113.00
  Q 76.47 113.53 75.94 113.54
  Q 60.58 113.57 45.26 113.41
  Q 33.59 113.28 26.72 105.54
  C 18.27 96.02 21.56 81.26 33.06 75.85
  Q 38.37 73.36 44.26 73.24
  Q 58.49 72.95 72.74 72.95
  A 0.57 0.56 89.5 0 1 73.30 73.51
  L 73.30 79.50
  Q 73.30 80.09 72.71 80.09
  Q 59.59 80.13 46.50 80.07
  C 26.41 79.98 25.76 105.27 44.51 106.29
  Q 50.34 106.60 67.01 106.30
  Q 67.54 106.29 67.54 105.76
  L 67.55 96.52
  Q 67.55 96.00 67.02 96.00
  Z"
/>
<rect fill="#000000" x="147.99" y="72.99" width="8.78" height="40.54" rx="0.46"/>
<path fill="#000000" d="
  M 192.24 80.44
  L 192.25 113.20
  A 0.34 0.34 0.0 0 1 191.91 113.54
  L 183.81 113.54
  A 0.34 0.34 0.0 0 1 183.47 113.20
  L 183.47 80.42
  A 0.34 0.34 0.0 0 0 183.13 80.08
  L 165.09 80.11
  A 0.34 0.34 0.0 0 1 164.75 79.77
  L 164.74 73.32
  A 0.34 0.34 0.0 0 1 165.08 72.98
  L 210.93 72.98
  A 0.34 0.34 0.0 0 1 211.27 73.32
  L 211.27 79.75
  A 0.34 0.34 0.0 0 1 210.93 80.09
  L 192.58 80.10
  A 0.34 0.34 0.0 0 0 192.24 80.44
  Z"
/>
<path fill="#000000" d="
  M 227.63 106.38
  L 262.90 106.38
  A 0.36 0.36 0.0 0 1 263.26 106.74
  L 263.25 113.17
  A 0.36 0.36 0.0 0 1 262.89 113.53
  L 219.08 113.53
  A 0.36 0.36 0.0 0 1 218.72 113.17
  L 218.73 73.34
  A 0.36 0.36 0.0 0 1 219.09 72.98
  L 262.83 72.98
  A 0.36 0.36 0.0 0 1 263.19 73.34
  L 263.20 79.74
  A 0.36 0.36 0.0 0 1 262.84 80.10
  L 227.64 80.09
  A 0.36 0.36 0.0 0 0 227.28 80.45
  L 227.27 106.02
  A 0.36 0.36 0.0 0 0 227.63 106.38
  Z"
/>
<rect fill="#000000" x="233.68" y="89.92" width="27.66" height="6.08" rx="0.36"/>
</svg>
