<?xml version="1.0" encoding="UTF-8" standalone="no"?>
<!DOCTYPE svg PUBLIC "-//W3C//DTD SVG 1.1//EN" "http://www.w3.org/Graphics/SVG/1.1/DTD/svg11.dtd">
<svg xmlns="http://www.w3.org/2000/svg" version="1.1" viewBox="0.00 0.00 382.00 132.00">
<path fill="#a7a5a6" d="
  M 2.03 1.67
  L 45.96 18.80
  Q 46.46 18.99 45.97 19.21
  Q 33.33 24.81 22.13 32.89
  A 0.55 0.55 0.0 0 1 21.41 32.82
  Q 8.57 19.36 1.62 2.09
  Q 1.34 1.40 2.03 1.67
  Z"
/>
<path fill="#b07e25" d="
  M 94.54 37.70
  A 0.18 0.18 0.0 0 1 94.54 38.03
  L 50.51 55.17
  Q 50.13 55.32 49.76 55.12
  Q 37.14 48.12 26.61 38.23
  Q 26.20 37.85 26.61 37.46
  Q 37.08 27.63 49.63 20.67
  Q 50.11 20.40 50.62 20.60
  L 94.54 37.70
  Z"
/>
<path fill="#a49669" d="
  M 1.85 74.11
  Q 1.31 74.33 1.53 73.78
  Q 8.54 56.46 21.38 42.89
  Q 21.73 42.52 22.14 42.83
  Q 33.24 51.08 46.03 56.35
  Q 46.76 56.65 46.03 56.94
  L 1.85 74.11
  Z"
/>
<path fill="#4c4a4b" d="
  M 218.16 109.26
  L 226.80 109.25
  A 0.54 0.54 0.0 0 0 227.34 108.70
  L 227.29 105.75
  Q 227.27 105.02 228.00 105.02
  L 229.84 105.02
  Q 230.40 105.02 230.40 105.58
  L 230.45 116.03
  Q 230.45 116.52 229.97 116.52
  L 227.80 116.52
  A 0.47 0.47 0.0 0 1 227.33 116.05
  L 227.34 112.81
  Q 227.34 112.27 226.81 112.27
  L 218.03 112.26
  A 0.47 0.46 -89.4 0 0 217.57 112.72
  L 217.56 125.81
  Q 217.56 126.38 218.13 126.38
  L 229.97 126.33
  Q 230.50 126.33 230.50 125.79
  L 230.46 122.04
  Q 230.46 121.54 230.96 121.55
  L 233.04 121.56
  Q 233.53 121.56 233.53 122.04
  L 233.54 128.76
  Q 233.54 129.30 232.99 129.30
  L 208.01 129.29
  Q 207.48 129.29 207.48 128.76
  L 207.46 127.28
  Q 207.45 126.76 207.97 126.76
  L 211.01 126.79
  A 0.56 0.55 -0.0 0 0 211.57 126.24
  L 211.57 95.94
  A 0.62 0.61 -0.5 0 0 210.94 95.33
  L 208.19 95.37
  Q 207.49 95.38 207.49 94.69
  L 207.48 93.31
  Q 207.47 92.85 207.94 92.85
  L 228.98 92.87
  Q 229.54 92.87 229.73 92.34
  Q 230.33 90.64 232.52 91.35
  A 0.70 0.69 -80.7 0 1 232.99 92.01
  L 233.00 100.03
  A 0.52 0.52 0.0 0 1 232.47 100.55
  L 230.49 100.53
  Q 229.96 100.53 229.96 99.99
  L 229.99 96.48
  Q 229.99 95.97 229.48 95.97
  L 218.04 95.98
  A 0.47 0.47 0.0 0 0 217.57 96.45
  L 217.57 108.66
  A 0.60 0.59 -90.0 0 0 218.16 109.26
  Z"
/>
<path fill="#4c4a4b" d="
  M 321.3590 130.0486
  A 18.91 18.15 90.7 0 1 303.4414 110.9183
  A 18.91 18.15 90.7 0 1 321.8210 92.2314
  A 18.91 18.15 90.7 0 1 339.7386 111.3617
  A 18.91 18.15 90.7 0 1 321.3590 130.0486
  Z
  M 321.5252 126.8499
  A 15.70 11.70 90.2 0 0 333.2799 111.1908
  A 15.70 11.70 90.2 0 0 321.6348 95.4501
  A 15.70 11.70 90.2 0 0 309.8801 111.1092
  A 15.70 11.70 90.2 0 0 321.5252 126.8499
  Z"
/>
<path fill="#4c4a4b" d="
  M 29.66 95.31
  L 26.87 95.33
  Q 26.29 95.34 26.22 94.75
  L 26.06 93.52
  Q 25.99 92.91 26.60 92.90
  Q 34.27 92.77 41.90 92.91
  Q 46.39 92.98 48.42 93.89
  C 55.51 97.04 55.46 107.28 47.68 109.68
  A 0.34 0.34 0.0 0 0 47.68 110.33
  C 59.53 114.11 57.00 129.02 45.25 129.28
  Q 41.42 129.36 26.69 129.27
  Q 26.15 129.27 26.11 128.73
  L 26.02 127.39
  Q 25.98 126.75 26.61 126.77
  L 29.70 126.84
  Q 30.26 126.86 30.26 126.30
  L 30.25 95.91
  Q 30.25 95.31 29.66 95.31
  Z
  M 36.30 96.18
  L 36.24 108.58
  A 0.31 0.31 0.0 0 0 36.55 108.89
  L 41.16 108.92
  A 6.14 5.97 0.3 0 0 47.33 102.98
  L 47.33 101.90
  A 6.14 5.97 0.3 0 0 41.22 95.90
  L 36.61 95.87
  A 0.31 0.31 0.0 0 0 36.30 96.18
  Z
  M 36.27 112.15
  L 36.25 126.15
  A 0.20 0.20 0.0 0 0 36.45 126.35
  L 41.69 126.36
  A 7.50 6.88 0.1 0 0 49.20 119.49
  L 49.20 118.85
  A 7.50 6.88 0.1 0 0 41.71 111.96
  L 36.47 111.95
  A 0.20 0.20 0.0 0 0 36.27 112.15
  Z"
/>
<path fill="#4c4a4b" d="
  M 69.67 102.72
  L 69.70 126.27
  Q 69.70 126.85 70.27 126.83
  L 73.33 126.76
  A 0.55 0.55 0.0 0 1 73.89 127.30
  L 73.91 128.68
  Q 73.93 129.29 73.32 129.29
  L 62.67 129.30
  Q 62.05 129.30 62.04 128.67
  L 62.03 127.37
  Q 62.02 126.75 62.63 126.77
  L 65.74 126.83
  Q 66.32 126.84 66.32 126.26
  Q 66.30 112.65 66.34 99.07
  C 66.34 96.13 65.02 94.43 61.90 95.50
  Q 61.17 95.74 61.12 94.97
  L 61.03 93.43
  Q 60.99 92.85 61.57 92.85
  L 69.94 92.86
  Q 70.50 92.86 70.84 93.32
  L 89.14 118.23
  A 0.33 0.33 0.0 0 0 89.74 118.03
  L 89.72 95.90
  A 0.57 0.57 0.0 0 0 89.15 95.33
  L 86.19 95.37
  Q 85.50 95.37 85.50 94.69
  L 85.50 93.30
  Q 85.50 92.85 85.95 92.85
  L 96.44 92.85
  A 0.59 0.59 0.0 0 1 97.03 93.44
  L 97.03 94.77
  A 0.55 0.55 0.0 0 1 96.48 95.32
  L 93.60 95.31
  Q 93.00 95.31 93.00 95.90
  L 93.01 128.65
  A 1.68 1.68 0.0 0 1 89.97 129.64
  L 70.23 102.54
  Q 69.67 101.77 69.67 102.72
  Z"
/>
<path fill="#4c4a4b" d="
  M 119.42 108.03
  L 126.78 95.93
  Q 127.17 95.30 126.42 95.31
  L 122.86 95.38
  Q 122.34 95.39 122.31 94.87
  L 122.24 93.45
  Q 122.21 92.86 122.80 92.86
  L 133.39 92.85
  Q 133.94 92.85 133.90 93.40
  L 133.79 94.84
  Q 133.75 95.42 133.17 95.38
  L 131.58 95.27
  Q 130.96 95.23 130.63 95.76
  L 120.69 111.89
  Q 120.47 112.25 120.47 112.67
  L 120.49 126.29
  A 0.55 0.54 89.5 0 0 121.04 126.84
  L 124.06 126.76
  Q 124.63 126.74 124.64 127.31
  L 124.66 128.68
  A 0.60 0.59 89.5 0 1 124.07 129.29
  L 110.98 129.29
  Q 110.42 129.29 110.41 128.73
  L 110.37 127.32
  Q 110.36 126.75 110.93 126.76
  L 113.98 126.81
  Q 114.54 126.82 114.54 126.27
  L 114.52 113.00
  Q 114.52 112.56 114.27 112.18
  Q 109.16 104.43 104.16 96.66
  C 103.25 95.24 102.32 94.94 100.73 95.43
  Q 100.10 95.63 100.06 94.97
  L 99.99 93.45
  Q 99.96 92.85 100.55 92.85
  L 114.22 92.87
  Q 114.83 92.87 114.81 93.47
  L 114.78 94.79
  Q 114.77 95.35 114.21 95.34
  L 111.09 95.28
  Q 110.28 95.26 110.72 95.94
  L 118.64 108.04
  Q 119.04 108.66 119.42 108.03
  Z"
/>
<path fill="#4c4a4b" d="
  M 188.86 102.72
  L 176.60 129.72
  A 0.31 0.31 0.0 0 1 176.03 129.72
  L 163.08 102.10
  A 0.31 0.31 0.0 0 0 162.49 102.23
  L 162.52 126.53
  A 0.31 0.31 0.0 0 0 162.84 126.84
  L 166.43 126.75
  A 0.31 0.31 0.0 0 1 166.75 127.06
  L 166.77 128.98
  A 0.31 0.31 0.0 0 1 166.46 129.29
  L 155.34 129.29
  A 0.31 0.31 0.0 0 1 155.03 128.98
  L 155.00 127.07
  A 0.31 0.31 0.0 0 1 155.32 126.76
  L 158.89 126.84
  A 0.31 0.31 0.0 0 0 159.21 126.53
  L 159.20 95.62
  A 0.31 0.31 0.0 0 0 158.89 95.31
  L 155.35 95.36
  A 0.31 0.31 0.0 0 1 155.03 95.05
  L 154.99 93.18
  A 0.31 0.31 0.0 0 1 155.30 92.86
  L 165.01 92.86
  A 0.31 0.31 0.0 0 1 165.29 93.04
  L 177.37 118.75
  A 0.31 0.31 0.0 0 0 177.93 118.75
  L 189.81 93.03
  A 0.31 0.31 0.0 0 1 190.09 92.85
  L 199.19 92.86
  A 0.31 0.31 0.0 0 1 199.50 93.17
  L 199.50 95.07
  A 0.31 0.31 0.0 0 1 199.19 95.38
  L 195.68 95.34
  A 0.31 0.31 0.0 0 0 195.37 95.65
  L 195.36 126.50
  A 0.31 0.31 0.0 0 0 195.68 126.81
  L 199.19 126.76
  A 0.31 0.31 0.0 0 1 199.50 127.06
  L 199.51 128.98
  A 0.31 0.31 0.0 0 1 199.20 129.29
  L 185.56 129.30
  A 0.31 0.31 0.0 0 1 185.25 128.99
  L 185.24 127.05
  A 0.31 0.31 0.0 0 1 185.56 126.74
  L 189.09 126.83
  A 0.31 0.31 0.0 0 0 189.41 126.52
  L 189.46 102.85
  A 0.31 0.31 0.0 0 0 188.86 102.72
  Z"
/>
<path fill="#4c4a4b" d="
  M 246.44 95.31
  L 243.01 95.37
  A 0.31 0.31 0.0 0 1 242.69 95.06
  L 242.64 93.18
  A 0.31 0.31 0.0 0 1 242.95 92.86
  L 256.65 92.85
  A 0.31 0.31 0.0 0 1 256.96 93.17
  L 256.87 95.03
  A 0.31 0.31 0.0 0 1 256.56 95.33
  L 253.07 95.33
  A 0.31 0.31 0.0 0 0 252.76 95.64
  L 252.75 126.05
  A 0.31 0.31 0.0 0 0 253.06 126.36
  L 264.68 126.32
  A 0.31 0.31 0.0 0 0 264.99 126.01
  L 264.96 121.89
  A 0.31 0.31 0.0 0 1 265.26 121.58
  L 267.70 121.51
  A 0.31 0.31 0.0 0 1 268.02 121.82
  L 268.03 129.00
  A 0.31 0.31 0.0 0 1 267.72 129.31
  L 242.97 129.29
  A 0.31 0.31 0.0 0 1 242.66 128.99
  L 242.62 127.09
  A 0.31 0.31 0.0 0 1 242.93 126.77
  L 246.43 126.80
  A 0.31 0.31 0.0 0 0 246.74 126.49
  L 246.75 95.62
  A 0.31 0.31 0.0 0 0 246.44 95.31
  Z"
/>
<path fill="#4c4a4b" d="
  M 278.18 126.45
  L 278.21 95.67
  A 0.36 0.36 0.0 0 0 277.85 95.31
  L 274.49 95.34
  A 0.36 0.36 0.0 0 1 274.13 95.01
  L 273.99 93.25
  A 0.36 0.36 0.0 0 1 274.35 92.86
  L 287.89 92.86
  A 0.36 0.36 0.0 0 1 288.25 93.21
  L 288.27 94.97
  A 0.36 0.36 0.0 0 1 287.91 95.34
  L 284.56 95.31
  A 0.36 0.36 0.0 0 0 284.20 95.67
  L 284.21 126.01
  A 0.36 0.36 0.0 0 0 284.57 126.37
  L 296.15 126.32
  A 0.36 0.36 0.0 0 0 296.51 125.96
  L 296.48 121.91
  A 0.36 0.36 0.0 0 1 296.85 121.54
  L 299.19 121.57
  A 0.36 0.36 0.0 0 1 299.55 121.93
  L 299.54 128.94
  A 0.36 0.36 0.0 0 1 299.18 129.30
  L 274.38 129.31
  A 0.36 0.36 0.0 0 1 274.02 128.95
  L 274.00 127.13
  A 0.36 0.36 0.0 0 1 274.37 126.76
  L 277.82 126.81
  A 0.36 0.36 0.0 0 0 278.18 126.45
  Z"
/>
<path fill="#4c4a4b" d="
  M 353.19 102.51
  L 353.23 126.26
  Q 353.23 126.79 353.76 126.79
  L 356.82 126.79
  A 0.54 0.54 0.0 0 1 357.36 127.32
  L 357.38 128.70
  Q 357.39 129.29 356.80 129.29
  L 346.41 129.29
  Q 345.78 129.29 345.78 128.66
  L 345.80 127.24
  Q 345.80 126.78 346.26 126.78
  L 349.44 126.81
  Q 349.96 126.81 349.96 126.29
  Q 350.00 112.58 349.95 98.91
  C 349.94 95.95 348.35 94.49 345.42 95.48
  A 0.50 0.50 0.0 0 1 344.75 95.01
  L 344.71 93.46
  Q 344.70 92.87 345.29 92.87
  L 353.52 92.84
  A 1.17 1.16 71.8 0 1 354.46 93.32
  L 372.75 118.34
  Q 373.22 118.98 373.22 118.18
  L 373.19 95.88
  A 0.56 0.56 0.0 0 0 372.63 95.32
  L 369.69 95.35
  Q 369.03 95.36 369.02 94.71
  L 368.99 93.44
  Q 368.98 92.86 369.56 92.86
  L 380.14 92.85
  Q 380.68 92.85 380.68 93.39
  L 380.69 94.81
  Q 380.69 95.31 380.19 95.31
  L 377.15 95.35
  Q 376.53 95.36 376.53 95.97
  L 376.52 128.73
  A 1.62 1.62 0.0 0 1 373.59 129.69
  L 353.65 102.36
  Q 353.19 101.73 353.19 102.51
  Z"
/>
</svg>
