<?xml version="1.0" encoding="UTF-8" standalone="no"?>
<!DOCTYPE svg PUBLIC "-//W3C//DTD SVG 1.1//EN" "http://www.w3.org/Graphics/SVG/1.1/DTD/svg11.dtd">
<svg xmlns="http://www.w3.org/2000/svg" version="1.1" viewBox="0.00 0.00 600.00 250.00">
<g stroke-width="2.00" fill="none" stroke-linecap="butt">
<path stroke="#e98729" vector-effect="non-scaling-stroke" d="
  M 510.53 42.98
  Q 510.54 43.13 510.47 43.25
  Q 510.40 43.37 510.26 43.37
  L 417.37 43.45"
/>
<path stroke="#ec9852" vector-effect="non-scaling-stroke" d="
  M 511.49 43.75
  Q 510.62 44.26 510.61 45.50
  Q 510.57 58.66 510.64 71.77"
/>
<path stroke="#e98729" vector-effect="non-scaling-stroke" d="
  M 510.64 71.77
  Q 510.91 71.93 510.60 73.22"
/>
<path stroke="#de6410" vector-effect="non-scaling-stroke" d="
  M 510.60 73.22
  Q 509.80 72.28 508.75 72.27
  Q 463.11 71.87 417.18 72.06"
/>
<path stroke="#f1ad5e" vector-effect="non-scaling-stroke" d="
  M 528.66 71.31
  L 510.64 71.77"
/>
<path stroke="#f1ad2e" vector-effect="non-scaling-stroke" d="
  M 529.05 72.03
  L 529.02 142.22"
/>
<path stroke="#e57527" vector-effect="non-scaling-stroke" d="
  M 529.02 142.22
  Q 529.15 141.72 528.20 142.26"
/>
<path stroke="#d8701c" vector-effect="non-scaling-stroke" d="
  M 528.20 142.26
  L 510.67 142.25"
/>
<path stroke="#e3791c" vector-effect="non-scaling-stroke" d="
  M 510.67 142.25
  L 510.60 73.22"
/>
<path stroke="#cd4c03" vector-effect="non-scaling-stroke" d="
  M 510.67 142.25
  Q 510.47 142.41 509.28 142.29"
/>
<path stroke="#cd3c03" vector-effect="non-scaling-stroke" d="
  M 509.28 142.29
  L 475.48 142.20"
/>
<path stroke="#cd4c03" vector-effect="non-scaling-stroke" d="
  M 475.48 142.20
  L 475.46 119.40
  Q 475.46 118.81 474.87 118.81
  L 417.17 118.69"
/>
<path stroke="#e8861f" vector-effect="non-scaling-stroke" d="
  M 576.01 142.23
  L 529.02 142.22"
/>
<path stroke="#c23303" vector-effect="non-scaling-stroke" d="
  M 475.48 142.20
  Q 474.77 141.99 474.46 142.19"
/>
<path stroke="#b72f03" vector-effect="non-scaling-stroke" d="
  M 474.46 142.19
  L 417.05 142.35"
/>
<path stroke="#b81f03" vector-effect="non-scaling-stroke" d="
  M 474.46 142.19
  Q 475.74 143.12 475.74 146.75
  Q 475.75 164.78 475.79 182.81
  C 475.80 184.75 476.41 186.88 476.31 189.05"
/>
<path stroke="#c23303" vector-effect="non-scaling-stroke" d="
  M 509.28 142.29
  Q 510.36 142.43 510.37 143.00
  Q 510.92 161.33 510.59 189.08"
/>
<path stroke="#e15c5d" vector-effect="non-scaling-stroke" d="
  M 576.54 142.28
  L 576.39 188.92"
/>
<path stroke="#ce490e" vector-effect="non-scaling-stroke" d="
  M 528.97 188.99
  L 528.77 143.18
  Q 528.77 142.81 528.50 142.56
  L 528.20 142.26"
/>
</g>
<path fill="#ee9c35" d="
  M 510.53 42.98
  Q 510.54 43.13 510.47 43.25
  Q 510.40 43.37 510.26 43.37
  L 417.37 43.45
  L 417.42 25.61
  A 0.61 0.61 0.0 0 1 418.03 25.01
  L 509.73 25.00
  Q 510.53 25.00 510.53 25.80
  L 510.53 42.98
  Z"
/>
<path fill="#e4721c" d="
  M 510.53 42.98
  Q 511.08 44.21 511.49 43.75
  Q 510.62 44.26 510.61 45.50
  Q 510.57 58.66 510.64 71.77
  Q 510.91 71.93 510.60 73.22
  Q 509.80 72.28 508.75 72.27
  Q 463.11 71.87 417.18 72.06
  L 417.37 43.45
  L 510.26 43.37
  Q 510.40 43.37 510.47 43.25
  Q 510.54 43.13 510.53 42.98
  Z"
/>
<path fill="#f4bd87" d="
  M 528.66 71.31
  L 510.64 71.77
  Q 510.57 58.66 510.61 45.50
  Q 510.62 44.26 511.49 43.75
  L 527.98 43.59
  A 0.77 0.77 0.0 0 1 528.76 44.37
  L 528.66 71.31
  Z"
/>
<path fill="#ee9c35" d="
  M 528.66 71.31
  Q 527.96 71.11 529.05 72.03
  L 529.02 142.22
  Q 529.15 141.72 528.20 142.26
  L 510.67 142.25
  L 510.60 73.22
  Q 510.91 71.93 510.64 71.77
  L 528.66 71.31
  Z"
/>
<path fill="#000000" d="
  M 208.89 112.51
  Q 208.89 110.07 207.63 112.16
  L 172.92 169.45
  Q 172.61 169.96 172.01 169.96
  L 149.52 169.98
  A 0.46 0.46 0.0 0 1 149.06 169.52
  L 149.07 93.56
  Q 149.07 93.03 148.55 92.98
  L 130.85 91.26
  Q 130.25 91.21 130.25 90.60
  L 130.26 83.21
  Q 130.26 82.57 130.88 82.43
  Q 145.12 79.26 159.26 75.98
  Q 163.63 74.96 167.86 74.90
  Q 172.22 74.84 176.53 74.88
  Q 177.11 74.89 177.11 75.47
  L 177.10 135.21
  A 0.57 0.56 -29.5 0 0 178.15 135.50
  L 214.50 75.31
  Q 214.75 74.89 215.24 74.89
  L 236.68 74.86
  A 0.57 0.57 0.0 0 1 237.25 75.43
  L 237.24 145.05
  Q 237.24 147.38 238.63 145.51
  L 260.87 115.57
  A 1.47 1.44 -27.2 0 0 261.16 114.70
  L 261.16 78.52
  Q 261.16 78.09 261.46 77.78
  C 269.04 69.98 282.34 69.76 288.45 79.07
  C 295.96 90.48 287.19 102.98 280.31 111.79
  Q 257.82 140.58 235.55 169.55
  A 1.03 1.02 -71.3 0 1 234.73 169.96
  L 209.48 169.99
  A 0.60 0.60 0.0 0 1 208.88 169.39
  L 208.89 112.51
  Z"
/>
<path fill="#000000" d="
  M 350.73 82.58
  C 338.65 84.63 331.66 92.28 328.47 104.12
  C 323.99 120.75 327.28 145.00 345.47 152.14
  C 358.34 157.19 372.91 149.89 384.12 143.89
  A 0.45 0.45 0.0 0 1 384.78 144.28
  L 384.78 159.99
  Q 384.79 160.50 384.33 160.74
  Q 360.84 173.33 333.77 170.94
  C 306.23 168.50 289.10 143.04 292.27 116.25
  C 294.90 94.03 310.37 78.86 331.41 73.77
  C 346.57 70.10 369.09 71.11 379.84 84.41
  C 384.50 90.16 385.47 98.85 381.63 105.29
  C 375.28 115.91 360.92 113.93 351.59 107.80
  Q 351.27 107.59 351.27 107.20
  L 351.27 83.03
  Q 351.27 82.49 350.73 82.58
  Z"
/>
<path fill="#d85503" d="
  M 417.18 72.06
  Q 463.11 71.87 508.75 72.27
  Q 509.80 72.28 510.60 73.22
  L 510.67 142.25
  Q 510.47 142.41 509.28 142.29
  L 475.48 142.20
  L 475.46 119.40
  Q 475.46 118.81 474.87 118.81
  L 417.17 118.69
  L 417.18 72.06
  Z"
/>
<path fill="#f4be26" d="
  M 529.05 72.03
  L 575.43 72.02
  Q 575.98 72.02 575.98 72.58
  L 576.01 142.23
  L 529.02 142.22
  L 529.05 72.03
  Z"
/>
<path fill="#000000" d="
  M 27.07 199.43
  L 27.10 93.30
  Q 27.10 92.74 26.55 92.74
  L 11.94 92.74
  A 0.79 0.79 0.0 0 1 11.15 91.94
  L 11.21 84.68
  Q 11.22 84.08 11.78 83.91
  Q 28.25 78.89 44.68 73.85
  C 49.24 72.45 53.19 72.67 57.80 72.75
  A 0.51 0.51 0.0 0 1 58.30 73.26
  L 58.27 84.51
  A 0.64 0.64 0.0 0 0 59.26 85.05
  Q 67.29 79.82 76.03 76.08
  C 95.77 67.63 115.08 77.07 122.78 96.48
  C 130.82 116.76 127.66 141.86 111.32 156.83
  C 96.47 170.43 77.83 170.88 58.96 169.18
  A 0.63 0.62 2.9 0 0 58.27 169.80
  L 58.28 199.34
  Q 58.28 199.90 58.83 200.03
  L 73.46 203.40
  Q 73.94 203.52 73.95 204.02
  L 73.98 211.54
  Q 73.99 212.06 73.47 212.06
  L 13.52 212.06
  Q 12.98 212.06 12.98 211.52
  L 12.98 204.07
  Q 12.98 203.47 13.57 203.32
  L 26.59 200.05
  Q 27.07 199.93 27.07 199.43
  Z
  M 92.70 113.30
  C 89.95 95.46 74.76 89.18 58.65 94.24
  Q 58.25 94.36 58.25 94.78
  L 58.25 157.47
  Q 58.25 157.91 58.69 157.94
  Q 65.47 158.41 69.02 157.88
  C 91.83 154.46 95.67 132.53 92.70 113.30
  Z"
/>
<path fill="#c14303" d="
  M 417.17 118.69
  L 474.87 118.81
  Q 475.46 118.81 475.46 119.40
  L 475.48 142.20
  Q 474.77 141.99 474.46 142.19
  L 417.05 142.35
  L 417.17 118.69
  Z"
/>
<path fill="#ad1b02" d="
  M 474.46 142.19
  Q 475.74 143.12 475.74 146.75
  Q 475.75 164.78 475.79 182.81
  C 475.80 184.75 476.41 186.88 476.31 189.05
  L 418.36 189.04
  A 1.17 1.17 0.0 0 0 417.19 190.21
  L 417.21 211.71
  A 0.68 0.68 0.0 0 1 416.53 212.39
  L 324.57 212.38
  A 0.58 0.58 0.0 0 1 323.99 211.80
  L 323.99 189.73
  A 0.53 0.53 0.0 0 1 324.52 189.20
  L 416.38 189.19
  A 0.68 0.68 0.0 0 0 417.06 188.51
  L 417.05 142.35
  L 474.46 142.19
  Z"
/>
<path fill="#c22303" d="
  M 474.46 142.19
  Q 474.77 141.99 475.48 142.20
  L 509.28 142.29
  Q 510.36 142.43 510.37 143.00
  Q 510.92 161.33 510.59 189.08
  L 476.31 189.05
  C 476.41 186.88 475.80 184.75 475.79 182.81
  Q 475.75 164.78 475.74 146.75
  Q 475.74 143.12 474.46 142.19
  Z"
/>
<path fill="#db4e18" d="
  M 529.02 142.22
  L 576.01 142.23
  Q 576.28 142.25 576.54 142.28
  L 576.39 188.92
  L 528.97 188.99
  L 528.77 143.18
  Q 528.77 142.81 528.50 142.56
  L 528.20 142.26
  Q 529.15 141.72 529.02 142.22
  Z"
/>
<path fill="#e669a1" d="
  M 600.00 142.29
  L 600.00 188.86
  L 576.39 188.92
  L 576.54 142.28
  L 600.00 142.29
  Z"
/>
<path fill="#c14303" d="
  M 509.28 142.29
  Q 510.47 142.41 510.67 142.25
  L 528.20 142.26
  L 528.50 142.56
  Q 528.77 142.81 528.77 143.18
  L 528.97 188.99
  L 510.59 189.08
  Q 510.92 161.33 510.37 143.00
  Q 510.36 142.43 509.28 142.29
  Z"
/>
</svg>
