<?xml version="1.0" encoding="UTF-8" standalone="no"?>
<!DOCTYPE svg PUBLIC "-//W3C//DTD SVG 1.1//EN" "http://www.w3.org/Graphics/SVG/1.1/DTD/svg11.dtd">
<svg xmlns="http://www.w3.org/2000/svg" version="1.1" viewBox="0.00 0.00 325.00 155.00">
<path fill="#000000" d="
  M 117.65 0.00
  L 123.62 0.00
  Q 130.48 0.19 137.33 0.17
  C 141.36 0.16 146.29 1.38 150.98 0.81
  Q 156.38 0.16 158.10 0.15
  Q 161.89 0.15 165.69 0.14
  Q 167.69 0.14 173.24 0.78
  C 178.47 1.39 183.93 0.13 188.52 0.16
  Q 194.94 0.21 201.37 0.00
  L 207.37 0.00
  L 207.38 88.85
  Q 207.38 89.47 206.76 89.47
  L 118.25 89.47
  Q 117.64 89.47 117.64 88.86
  L 117.65 0.00
  Z
  M 146.49 3.61
  A 0.37 0.37 0.0 0 0 146.12 3.24
  L 121.20 3.24
  A 0.37 0.37 0.0 0 0 120.83 3.61
  L 120.83 28.47
  A 0.37 0.37 0.0 0 0 121.20 28.84
  L 146.12 28.84
  A 0.37 0.37 0.0 0 0 146.49 28.47
  L 146.49 3.61
  Z
  M 175.26 3.59
  A 0.35 0.35 0.0 0 0 174.91 3.24
  L 150.09 3.24
  A 0.35 0.35 0.0 0 0 149.74 3.59
  L 149.74 28.49
  A 0.35 0.35 0.0 0 0 150.09 28.84
  L 174.91 28.84
  A 0.35 0.35 0.0 0 0 175.26 28.49
  L 175.26 3.59
  Z
  M 204.14 3.68
  A 0.43 0.43 0.0 0 0 203.71 3.25
  L 178.97 3.25
  A 0.43 0.43 0.0 0 0 178.54 3.68
  L 178.54 28.40
  A 0.43 0.43 0.0 0 0 178.97 28.83
  L 203.71 28.83
  A 0.43 0.43 0.0 0 0 204.14 28.40
  L 204.14 3.68
  Z
  M 146.49 32.42
  A 0.39 0.39 0.0 0 0 146.10 32.03
  L 121.22 32.03
  A 0.39 0.39 0.0 0 0 120.83 32.42
  L 120.83 57.22
  A 0.39 0.39 0.0 0 0 121.22 57.61
  L 146.10 57.61
  A 0.39 0.39 0.0 0 0 146.49 57.22
  L 146.49 32.42
  Z
  M 175.26 32.34
  A 0.31 0.31 0.0 0 0 174.95 32.03
  L 150.05 32.03
  A 0.31 0.31 0.0 0 0 149.74 32.34
  L 149.74 57.36
  A 0.31 0.31 0.0 0 0 150.05 57.67
  L 174.95 57.67
  A 0.31 0.31 0.0 0 0 175.26 57.36
  L 175.26 32.34
  Z
  M 204.14 32.43
  A 0.40 0.40 0.0 0 0 203.74 32.03
  L 178.94 32.03
  A 0.40 0.40 0.0 0 0 178.54 32.43
  L 178.54 57.27
  A 0.40 0.40 0.0 0 0 178.94 57.67
  L 203.74 57.67
  A 0.40 0.40 0.0 0 0 204.14 57.27
  L 204.14 32.43
  Z
  M 146.49 61.14
  A 0.41 0.41 0.0 0 0 146.08 60.73
  L 121.24 60.73
  A 0.41 0.41 0.0 0 0 120.83 61.14
  L 120.83 85.92
  A 0.41 0.41 0.0 0 0 121.24 86.33
  L 146.08 86.33
  A 0.41 0.41 0.0 0 0 146.49 85.92
  L 146.49 61.14
  Z
  M 175.26 61.04
  A 0.31 0.31 0.0 0 0 174.95 60.73
  L 150.05 60.73
  A 0.31 0.31 0.0 0 0 149.74 61.04
  L 149.74 86.02
  A 0.31 0.31 0.0 0 0 150.05 86.33
  L 174.95 86.33
  A 0.31 0.31 0.0 0 0 175.26 86.02
  L 175.26 61.04
  Z
  M 204.14 61.13
  A 0.40 0.40 0.0 0 0 203.74 60.73
  L 178.94 60.73
  A 0.40 0.40 0.0 0 0 178.54 61.13
  L 178.54 85.93
  A 0.40 0.40 0.0 0 0 178.94 86.33
  L 203.74 86.33
  A 0.40 0.40 0.0 0 0 204.14 85.93
  L 204.14 61.13
  Z"
/>
<path fill="#000000" d="
  M 277.18 142.50
  C 276.40 152.44 291.90 153.26 292.07 145.13
  C 292.21 138.71 281.94 139.63 277.85 136.62
  C 273.08 133.12 274.09 124.61 279.88 122.21
  Q 288.23 118.74 294.30 125.91
  A 0.63 0.63 0.0 0 1 294.14 126.86
  L 291.77 128.27
  Q 291.33 128.53 291.00 128.14
  Q 288.00 124.56 283.71 125.02
  C 279.94 125.42 277.04 128.88 279.15 132.53
  C 280.78 135.36 288.24 136.45 291.56 137.63
  C 295.50 139.04 296.53 144.18 295.26 147.85
  Q 292.87 154.80 284.01 153.97
  Q 273.50 152.99 273.24 142.73
  A 0.65 0.64 89.1 0 1 273.87 142.07
  L 276.72 142.01
  Q 277.22 141.99 277.18 142.50
  Z"
/>
<path fill="#000000" d="
  M 48.15 155.00
  L 44.99 155.00
  Q 32.61 152.87 30.05 141.50
  C 27.38 129.64 38.72 119.08 50.51 121.69
  C 61.15 124.05 66.48 135.77 61.81 145.77
  Q 58.16 153.61 48.15 155.00
  Z
  M 59.71 138.09
  A 13.00 13.00 0.0 0 0 46.71 125.09
  A 13.00 13.00 0.0 0 0 33.71 138.09
  A 13.00 13.00 0.0 0 0 46.71 151.09
  A 13.00 13.00 0.0 0 0 59.71 138.09
  Z"
/>
<path fill="#000000" d="
  M 123.64 155.00
  L 120.21 155.00
  Q 108.64 152.55 105.98 142.80
  C 100.24 121.76 130.11 112.60 137.91 132.06
  C 142.14 142.64 134.76 153.43 123.64 155.00
  Z
  M 135.11 138.09
  A 12.99 12.99 0.0 0 0 122.12 125.10
  A 12.99 12.99 0.0 0 0 109.13 138.09
  A 12.99 12.99 0.0 0 0 122.12 151.08
  A 12.99 12.99 0.0 0 0 135.11 138.09
  Z"
/>
<path fill="#000000" d="
  M 216.13 155.00
  L 213.48 155.00
  Q 200.68 153.23 197.97 141.53
  C 195.64 131.44 204.05 121.11 214.25 121.24
  C 235.58 121.53 237.83 151.55 216.13 155.00
  Z
  M 227.58 138.08
  A 12.99 12.99 0.0 0 0 214.59 125.09
  A 12.99 12.99 0.0 0 0 201.60 138.08
  A 12.99 12.99 0.0 0 0 214.59 151.07
  A 12.99 12.99 0.0 0 0 227.58 138.08
  Z"
/>
<path fill="#000000" d="
  M 18.29 128.31
  C 16.58 126.08 13.88 124.87 11.07 125.04
  C 3.76 125.50 4.20 134.30 11.27 135.59
  Q 15.90 136.43 19.06 137.90
  C 24.52 140.44 24.06 148.56 20.10 151.89
  C 13.26 157.67 -0.70 153.31 0.75 142.83
  A 0.49 0.48 -85.9 0 1 1.23 142.41
  L 3.71 142.44
  Q 4.10 142.44 4.12 142.83
  Q 4.54 150.88 13.01 150.79
  C 16.18 150.76 19.04 149.04 19.31 145.65
  C 20.03 136.45 0.87 142.39 2.02 129.85
  C 2.97 119.45 16.68 119.06 21.54 126.28
  Q 21.87 126.77 21.36 127.07
  L 18.97 128.45
  Q 18.57 128.68 18.29 128.31
  Z"
/>
<path fill="#000000" d="
  M 93.00 135.46
  L 93.00 122.09
  A 0.38 0.38 0.0 0 1 93.38 121.71
  L 96.36 121.70
  A 0.38 0.38 0.0 0 1 96.74 122.08
  L 96.74 153.23
  A 0.38 0.38 0.0 0 1 96.37 153.61
  L 93.39 153.69
  A 0.38 0.38 0.0 0 1 93.00 153.31
  L 93.00 139.69
  A 0.38 0.38 0.0 0 0 92.62 139.31
  L 76.01 139.32
  A 0.38 0.38 0.0 0 0 75.63 139.70
  L 75.63 153.27
  A 0.38 0.38 0.0 0 1 75.25 153.65
  L 72.38 153.66
  A 0.38 0.38 0.0 0 1 72.00 153.28
  L 71.99 122.09
  A 0.38 0.38 0.0 0 1 72.37 121.71
  L 75.28 121.69
  A 0.38 0.38 0.0 0 1 75.66 122.07
  L 75.64 135.44
  A 0.38 0.38 0.0 0 0 76.02 135.82
  L 92.62 135.84
  A 0.38 0.38 0.0 0 0 93.00 135.46
  Z"
/>
<path fill="#000000" d="
  M 168.42 135.84
  L 185.23 135.83
  A 0.37 0.37 0.0 0 0 185.60 135.46
  L 185.56 122.08
  A 0.37 0.37 0.0 0 1 185.93 121.71
  L 188.80 121.71
  A 0.37 0.37 0.0 0 1 189.17 122.08
  L 189.16 153.31
  A 0.37 0.37 0.0 0 1 188.78 153.68
  L 185.92 153.63
  A 0.37 0.37 0.0 0 1 185.56 153.26
  L 185.61 139.67
  A 0.37 0.37 0.0 0 0 185.24 139.30
  L 168.42 139.32
  A 0.37 0.37 0.0 0 0 168.05 139.69
  L 168.05 153.30
  A 0.37 0.37 0.0 0 1 167.67 153.67
  L 164.85 153.63
  A 0.37 0.37 0.0 0 1 164.49 153.26
  L 164.49 122.08
  A 0.37 0.37 0.0 0 1 164.86 121.71
  L 167.69 121.71
  A 0.37 0.37 0.0 0 1 168.06 122.08
  L 168.05 135.47
  A 0.37 0.37 0.0 0 0 168.42 135.84
  Z"
/>
<path fill="#000000" d="
  M 251.70 150.62
  C 256.72 151.09 260.96 148.04 260.94 142.75
  Q 260.92 132.52 260.95 122.27
  Q 260.95 121.72 261.50 121.72
  L 263.99 121.70
  Q 264.51 121.70 264.52 122.22
  Q 264.60 137.36 264.49 142.73
  Q 264.29 152.83 254.25 153.85
  Q 240.84 155.20 240.51 142.01
  Q 240.26 132.12 240.21 122.26
  Q 240.21 121.71 240.76 121.71
  L 243.48 121.71
  Q 244.00 121.71 244.00 122.24
  Q 243.96 129.72 243.99 137.18
  C 244.02 144.41 243.41 149.83 251.70 150.62
  Z"
/>
<path fill="#000000" d="
  M 308.04 125.54
  L 308.03 135.53
  A 0.32 0.32 0.0 0 0 308.35 135.85
  L 321.74 135.82
  A 0.32 0.32 0.0 0 1 322.06 136.14
  L 322.08 139.02
  A 0.32 0.32 0.0 0 1 321.76 139.34
  L 308.35 139.30
  A 0.32 0.32 0.0 0 0 308.03 139.62
  L 308.03 149.91
  A 0.32 0.32 0.0 0 0 308.35 150.23
  L 324.03 150.21
  A 0.32 0.32 0.0 0 1 324.35 150.52
  L 324.46 153.32
  A 0.32 0.32 0.0 0 1 324.14 153.65
  L 304.78 153.65
  A 0.32 0.32 0.0 0 1 304.46 153.33
  L 304.46 122.03
  A 0.32 0.32 0.0 0 1 304.78 121.71
  L 324.10 121.71
  A 0.32 0.32 0.0 0 1 324.42 122.03
  L 324.40 124.90
  A 0.32 0.32 0.0 0 1 324.08 125.22
  L 308.36 125.22
  A 0.32 0.32 0.0 0 0 308.04 125.54
  Z"
/>
</svg>
