<?xml version="1.0" encoding="UTF-8" standalone="no"?>
<!DOCTYPE svg PUBLIC "-//W3C//DTD SVG 1.1//EN" "http://www.w3.org/Graphics/SVG/1.1/DTD/svg11.dtd">
<svg xmlns="http://www.w3.org/2000/svg" version="1.1" viewBox="0.00 0.00 532.00 95.00">
<path fill="#000000" d="
  M 167.48 0.00
  L 185.19 0.00
  L 185.17 27.39
  Q 185.17 27.94 185.55 27.53
  Q 194.93 17.42 208.06 19.58
  C 220.98 21.71 223.69 32.04 223.63 43.50
  Q 223.54 61.27 223.46 79.04
  Q 223.46 79.52 222.98 79.52
  L 206.24 79.51
  Q 205.69 79.51 205.70 78.97
  Q 205.88 64.24 205.47 42.78
  Q 205.36 36.98 201.45 34.61
  C 196.90 31.85 189.93 33.35 187.31 38.26
  C 185.70 41.28 185.31 45.69 185.31 49.65
  Q 185.31 64.44 185.29 79.23
  Q 185.29 79.76 184.76 79.76
  L 168.00 79.76
  Q 167.48 79.76 167.48 79.23
  L 167.48 0.00
  Z"
/>
<path fill="#000000" d="
  M 0.00 33.09
  L 0.00 20.56
  L 8.94 20.52
  Q 9.46 20.52 9.46 20.00
  L 9.42 4.74
  Q 9.42 4.41 9.76 4.41
  L 26.72 4.42
  Q 27.27 4.42 27.27 4.97
  L 27.26 20.03
  A 0.52 0.51 -0.0 0 0 27.78 20.54
  L 39.78 20.53
  Q 40.28 20.53 40.28 21.03
  L 40.27 32.72
  Q 40.27 33.20 39.78 33.20
  L 27.79 33.17
  Q 27.29 33.17 27.28 33.67
  Q 27.22 47.14 27.30 60.48
  C 27.34 67.73 34.78 66.72 39.69 66.43
  Q 40.27 66.40 40.27 66.98
  L 40.27 78.76
  Q 40.27 79.30 39.73 79.30
  Q 31.84 79.34 24.00 79.16
  C 12.48 78.91 9.33 73.44 9.40 62.75
  Q 9.51 48.22 9.42 33.69
  A 0.54 0.54 0.0 0 0 8.89 33.15
  L 0.00 33.09
  Z"
/>
<path fill="#000000" d="
  M 292.40 33.17
  L 284.41 33.18
  Q 283.89 33.18 283.89 32.66
  L 283.87 21.08
  Q 283.87 20.52 284.42 20.52
  L 292.47 20.56
  Q 293.00 20.56 293.00 20.03
  L 293.00 4.96
  A 0.54 0.53 -0.0 0 1 293.54 4.43
  L 310.50 4.42
  Q 311.09 4.42 311.08 5.00
  L 311.07 20.06
  Q 311.07 20.54 311.56 20.54
  L 323.58 20.53
  Q 324.13 20.53 324.13 21.08
  L 324.13 32.58
  Q 324.13 33.19 323.52 33.19
  L 311.73 33.17
  Q 311.18 33.17 311.17 33.71
  Q 310.81 55.57 311.18 62.49
  C 311.43 67.06 319.21 66.66 323.38 66.37
  A 0.61 0.61 0.0 0 1 324.03 66.98
  L 324.02 78.74
  Q 324.02 79.23 323.53 79.24
  Q 314.37 79.49 305.27 79.00
  C 296.74 78.53 292.99 72.54 293.02 64.50
  Q 293.08 49.12 292.96 33.73
  Q 292.96 33.17 292.40 33.17
  Z"
/>
<path fill="#000000" d="
  M 137.42 32.80
  C 122.41 31.59 121.01 50.82 125.32 60.42
  Q 127.89 66.15 134.74 66.82
  Q 145.16 67.85 148.40 58.42
  Q 148.55 57.96 149.04 57.96
  L 164.73 57.95
  Q 165.09 57.95 165.01 58.30
  Q 162.86 67.32 156.64 73.06
  C 145.37 83.45 124.10 83.93 113.08 72.69
  C 106.41 65.89 104.36 55.93 105.02 46.63
  C 106.16 30.66 116.88 19.48 133.49 18.84
  Q 157.99 17.88 164.19 41.41
  Q 164.34 42.00 163.73 42.00
  L 148.26 42.00
  A 1.19 1.18 -4.6 0 1 147.09 41.01
  C 146.25 36.10 142.33 33.19 137.42 32.80
  Z"
/>
<path fill="#000000" d="
  M 365.99 73.03
  Q 361.97 77.76 356.39 79.58
  C 347.17 82.58 333.65 81.30 328.32 72.12
  C 323.45 63.73 326.47 53.95 335.01 49.53
  C 343.85 44.96 355.04 43.49 364.85 42.87
  Q 365.37 42.83 365.46 42.32
  C 366.99 33.42 360.89 29.46 352.75 31.19
  Q 346.30 32.56 344.92 39.00
  Q 344.81 39.52 344.28 39.52
  L 328.53 39.51
  Q 328.03 39.51 328.11 39.03
  C 330.34 24.86 344.13 18.47 357.03 18.63
  C 367.35 18.76 376.94 21.07 381.33 30.95
  C 384.26 37.55 383.40 47.67 383.10 55.24
  Q 382.64 67.19 384.19 79.02
  Q 384.25 79.52 383.75 79.52
  L 367.28 79.51
  Q 366.79 79.51 366.78 79.03
  L 366.63 73.25
  Q 366.60 72.31 365.99 73.03
  Z
  M 350.66 55.83
  C 344.99 57.49 342.18 63.94 348.12 67.57
  Q 350.01 68.72 351.03 68.79
  Q 367.17 69.79 365.93 53.83
  Q 365.89 53.37 365.44 53.39
  Q 357.89 53.71 350.66 55.83
  Z"
/>
<path fill="#000000" d="
  M 58.27 55.01
  C 58.50 68.68 77.88 70.46 85.05 61.36
  Q 85.33 61.00 85.79 61.00
  L 101.22 61.00
  Q 101.75 61.00 101.54 61.49
  C 94.88 77.29 78.86 84.12 62.48 79.91
  C 50.29 76.77 42.14 68.24 40.31 55.51
  C 37.87 38.56 46.34 24.31 62.67 19.98
  C 85.75 13.86 103.80 31.03 101.85 54.01
  Q 101.81 54.53 101.28 54.53
  L 58.75 54.53
  Q 58.27 54.53 58.27 55.01
  Z
  M 58.75 43.86
  L 83.99 43.68
  A 0.20 0.20 0.0 0 0 84.19 43.48
  L 84.19 43.36
  A 12.58 11.10 -0.4 0 0 71.53 32.35
  L 71.05 32.35
  A 12.58 11.10 -0.4 0 0 58.55 43.54
  L 58.55 43.66
  A 0.20 0.20 0.0 0 0 58.75 43.86
  Z"
/>
<path fill="#000000" d="
  M 264.21 59.16
  Q 262.25 57.83 259.75 57.42
  C 251.76 56.11 241.00 55.49 234.38 50.71
  C 225.72 44.44 224.74 32.57 233.00 25.29
  Q 237.16 21.63 244.74 19.99
  C 259.32 16.83 278.54 20.31 282.19 37.45
  Q 282.32 38.04 281.72 38.03
  L 265.98 37.77
  Q 265.42 37.76 265.19 37.24
  C 262.38 30.99 251.54 31.24 246.89 33.12
  C 241.12 35.45 245.71 41.11 249.79 41.70
  Q 260.63 43.28 271.23 46.01
  C 277.69 47.68 282.95 52.01 283.54 59.00
  C 285.34 80.46 258.51 83.42 243.52 79.44
  Q 229.10 75.61 226.28 61.08
  Q 226.17 60.52 226.75 60.52
  L 242.32 60.51
  Q 242.91 60.51 243.11 61.06
  C 245.99 69.12 256.71 69.03 263.20 66.66
  C 267.01 65.27 267.66 61.51 264.21 59.16
  Z"
/>
<path fill="#000000" d="
  M 459.49 57.59
  C 447.72 55.42 429.73 55.00 427.27 39.97
  C 426.03 32.39 430.19 25.89 436.92 22.77
  Q 452.23 15.69 468.26 21.50
  Q 479.43 25.55 481.90 37.52
  Q 482.00 38.01 481.50 38.01
  L 465.68 37.73
  Q 465.17 37.72 464.94 37.25
  C 461.91 31.02 451.46 31.18 446.64 33.12
  C 442.79 34.67 443.43 38.56 446.49 40.43
  Q 448.52 41.68 449.73 41.82
  Q 463.17 43.43 473.27 46.84
  C 486.04 51.16 486.20 67.64 476.51 75.04
  C 466.75 82.51 449.08 82.50 438.61 77.90
  Q 427.98 73.23 426.05 61.04
  Q 425.97 60.52 426.49 60.52
  L 442.04 60.51
  Q 442.68 60.51 442.87 61.12
  C 446.81 73.31 472.14 67.34 464.91 59.84
  Q 463.44 58.31 459.49 57.59
  Z"
/>
<path fill="#000000" d="
  M 406.46 30.55
  Q 411.80 19.29 424.59 20.09
  Q 425.00 20.12 425.00 20.53
  L 425.00 37.24
  Q 425.00 37.78 424.47 37.70
  Q 417.54 36.72 413.19 38.28
  Q 406.30 40.76 406.39 49.26
  Q 406.54 64.04 406.60 78.85
  Q 406.60 79.42 406.03 79.42
  L 389.22 79.42
  Q 388.66 79.42 388.66 78.85
  L 388.65 21.13
  Q 388.65 20.54 389.24 20.54
  L 405.51 20.53
  Q 405.99 20.53 405.99 21.01
  L 406.01 30.45
  Q 406.02 31.48 406.46 30.55
  Z"
/>
<path fill="#38c463" d="
  M 532.00 79.80
  L 532.00 95.00
  L 483.19 95.00
  L 483.05 80.32
  Q 483.05 79.78 483.59 79.78
  L 532.00 79.80
  Z"
/>
</svg>
