<?xml version="1.0" encoding="UTF-8" standalone="no"?>
<!DOCTYPE svg PUBLIC "-//W3C//DTD SVG 1.1//EN" "http://www.w3.org/Graphics/SVG/1.1/DTD/svg11.dtd">
<svg xmlns="http://www.w3.org/2000/svg" version="1.1" viewBox="0.00 0.00 251.00 201.00">
<path fill="#e00a0a" d="
  M 46.11 0.00
  L 50.68 0.00
  Q 124.02 8.12 197.29 15.71
  C 206.07 16.62 211.96 16.31 211.97 26.49
  Q 212.03 73.88 211.97 121.25
  C 211.95 129.66 206.20 130.03 198.75 131.33
  Q 124.75 144.22 50.75 157.03
  C 40.71 158.77 38.99 153.18 39.02 144.54
  Q 39.30 44.04 39.27 9.25
  Q 39.26 2.06 46.11 0.00
  Z
  M 88.87 91.97
  C 88.03 88.64 88.10 84.77 87.48 81.87
  Q 85.35 71.96 83.89 61.93
  C 83.31 57.91 78.90 57.81 77.66 61.62
  Q 74.15 72.37 70.41 82.91
  A 2.13 2.13 0.0 0 0 72.04 85.72
  Q 74.55 86.17 75.52 83.51
  Q 77.04 79.38 78.85 74.43
  A 0.60 0.60 0.0 0 1 80.01 74.62
  C 80.04 76.18 80.77 77.62 80.98 79.11
  Q 83.27 95.47 86.02 111.75
  Q 86.39 113.97 87.36 115.52
  Q 87.64 115.97 88.17 116.01
  Q 91.53 116.29 91.96 112.98
  Q 93.82 98.76 94.71 93.24
  Q 95.15 90.54 95.52 89.45
  Q 95.68 88.98 95.50 88.53
  C 95.16 87.65 95.08 87.65 95.27 86.67
  C 96.75 79.43 97.84 72.01 100.24 65.00
  Q 101.36 61.72 102.37 57.90
  Q 105.35 46.61 110.45 36.07
  Q 111.79 33.31 115.56 29.27
  C 120.85 23.59 111.59 15.71 107.02 26.75
  Q 93.49 59.45 89.22 91.96
  Q 89.10 92.89 88.87 91.97
  Z
  M 155.6639 42.1204
  A 3.49 2.18 -41.0 0 0 151.5998 42.7647
  A 3.49 2.18 -41.0 0 0 150.3961 46.6996
  A 3.49 2.18 -41.0 0 0 154.4602 46.0553
  A 3.49 2.18 -41.0 0 0 155.6639 42.1204
  Z
  M 135.58 91.85
  Q 135.44 106.56 135.12 121.24
  C 135.00 126.51 142.72 128.08 142.20 121.26
  Q 141.94 117.82 141.45 114.39
  C 140.23 106.01 140.98 96.73 141.04 88.21
  Q 141.04 87.70 141.45 87.38
  C 150.76 80.25 161.29 74.66 171.63 69.17
  Q 175.85 66.93 182.01 65.09
  C 184.80 64.26 186.12 62.61 187.89 60.52
  Q 188.25 60.09 187.92 59.65
  C 185.46 56.35 180.92 59.82 178.47 61.01
  Q 175.20 62.59 175.06 58.96
  Q 174.83 52.51 175.38 46.25
  Q 175.50 44.86 174.29 43.88
  C 171.09 41.26 167.66 45.86 165.70 47.56
  Q 165.30 47.90 164.80 47.78
  C 160.40 46.70 158.22 48.91 157.88 53.24
  Q 157.34 60.07 156.98 66.80
  A 1.76 1.76 0.0 0 0 158.86 68.65
  C 161.64 68.46 162.96 66.42 162.91 63.65
  C 162.80 57.90 163.07 52.02 167.48 49.23
  A 1.24 1.24 0.0 0 1 169.38 50.32
  Q 169.18 56.13 168.94 62.25
  Q 168.88 63.64 169.62 63.96
  A 0.67 0.67 0.0 0 1 169.69 65.15
  L 142.12 81.20
  Q 141.57 81.52 141.62 80.89
  L 143.05 59.06
  Q 143.09 58.54 142.75 58.13
  C 140.67 55.66 137.53 57.80 137.35 60.50
  Q 136.86 68.01 135.73 75.47
  Q 135.31 78.25 132.84 78.80
  A 1.40 1.39 -11.6 0 1 131.15 77.69
  Q 129.61 69.17 134.94 62.76
  A 1.66 1.66 0.0 0 0 133.97 60.07
  C 130.66 59.44 127.22 64.96 126.31 67.51
  C 125.22 70.56 124.50 78.40 125.36 81.77
  C 126.50 86.23 132.47 84.86 135.38 82.72
  Q 136.00 82.27 136.00 83.03
  L 135.99 84.92
  Q 135.99 85.48 135.52 85.80
  Q 119.81 96.29 104.32 110.07
  Q 99.53 114.33 96.31 118.22
  Q 95.99 118.61 95.99 119.11
  C 95.94 122.97 99.88 123.93 102.26 121.25
  Q 117.04 104.59 135.16 91.63
  Q 135.58 91.33 135.58 91.85
  Z
  M 153.53 53.71
  A 1.76 1.76 0.0 0 0 150.36 52.58
  L 148.77 54.72
  A 1.76 1.76 0.0 0 0 148.43 55.60
  L 146.87 71.86
  A 1.76 1.76 0.0 0 0 149.63 73.47
  L 151.99 71.81
  A 1.76 1.76 0.0 0 0 152.74 70.45
  L 153.53 53.71
  Z
  M 105.3520 65.8709
  A 3.79 2.17 133.9 0 0 109.5436 64.6447
  A 3.79 2.17 133.9 0 0 110.6080 60.4091
  A 3.79 2.17 133.9 0 0 106.4164 61.6353
  A 3.79 2.17 133.9 0 0 105.3520 65.8709
  Z
  M 120.68 66.92
  C 118.77 68.68 113.45 67.20 113.19 71.75
  Q 112.64 81.46 112.11 86.50
  Q 111.90 88.45 112.93 89.81
  Q 113.21 90.17 113.68 90.15
  C 120.77 89.81 117.27 80.40 119.19 75.03
  C 120.01 72.73 122.24 71.27 123.94 69.64
  A 1.83 1.82 54.2 0 0 124.29 67.44
  Q 122.92 64.86 120.68 66.92
  Z
  M 108.63 74.78
  A 2.01 2.01 0.0 0 0 105.27 73.07
  L 102.95 75.21
  A 2.01 2.01 0.0 0 0 102.32 76.52
  L 100.85 94.18
  A 2.01 2.01 0.0 0 0 104.04 95.96
  L 105.70 94.74
  A 2.01 2.01 0.0 0 0 106.51 93.35
  L 108.63 74.78
  Z"
/>
<path fill="#e00a0a" d="
  M 174.26 153.28
  L 174.25 200.17
  A 0.36 0.36 0.0 0 1 173.89 200.53
  L 169.11 200.53
  A 0.36 0.36 0.0 0 1 168.75 200.17
  L 168.75 154.48
  A 0.36 0.36 0.0 0 1 169.02 154.13
  L 173.81 152.93
  A 0.36 0.36 0.0 0 1 174.26 153.28
  Z"
/>
<path fill="#e00a0a" d="
  M 138.58 201.00
  L 133.53 201.00
  Q 127.06 199.31 124.30 194.01
  Q 122.98 191.47 122.97 186.76
  Q 122.94 174.66 122.92 162.49
  Q 122.92 161.86 123.54 161.74
  L 127.72 160.88
  Q 128.47 160.73 128.47 161.49
  L 128.44 176.02
  Q 128.44 176.62 129.00 176.39
  C 148.99 168.00 157.98 195.07 138.58 201.00
  Z
  M 136.0900 195.8600
  A 8.02 7.67 90.0 0 0 143.7600 187.8400
  A 8.02 7.67 90.0 0 0 136.0900 179.8200
  A 8.02 7.67 90.0 0 0 128.4200 187.8400
  A 8.02 7.67 90.0 0 0 136.0900 195.8600
  Z"
/>
<circle fill="#e00a0a" cx="157.49" cy="166.31" r="3.59"/>
<path fill="#e00a0a" d="
  M 196.05 201.00
  L 191.60 201.00
  C 174.86 197.00 177.28 173.86 194.33 174.71
  Q 205.83 175.28 206.95 188.69
  A 0.67 0.67 0.0 0 1 206.28 189.42
  L 186.76 189.44
  Q 186.26 189.44 186.36 189.94
  C 187.61 196.19 194.89 196.99 199.28 193.42
  Q 199.68 193.10 200.16 193.31
  L 204.49 195.24
  Q 205.04 195.48 204.68 195.95
  Q 201.59 200.00 196.05 201.00
  Z
  M 186.97 184.76
  L 200.23 184.76
  A 0.13 0.13 0.0 0 0 200.36 184.63
  L 200.36 184.58
  A 6.68 4.68 -0.0 0 0 193.68 179.90
  L 193.52 179.90
  A 6.68 4.68 0.0 0 0 186.84 184.58
  L 186.84 184.63
  A 0.13 0.13 0.0 0 0 186.97 184.76
  Z"
/>
<path fill="#e00a0a" d="
  M 66.76 177.99
  C 68.54 176.52 70.33 175.16 72.69 174.92
  Q 81.07 174.06 84.51 180.72
  C 87.01 185.57 86.05 194.32 85.97 200.04
  Q 85.96 200.54 85.45 200.54
  L 80.77 200.52
  Q 80.23 200.52 80.23 199.98
  Q 80.24 192.73 80.27 185.49
  C 80.29 178.87 69.07 177.81 69.03 186.93
  Q 69.00 193.50 69.01 200.07
  A 0.52 0.52 0.0 0 1 68.49 200.59
  L 64.02 200.53
  Q 63.52 200.53 63.52 200.03
  Q 63.53 193.00 63.53 186.00
  C 63.52 178.72 52.40 177.90 52.23 186.57
  Q 52.10 193.35 52.22 200.14
  A 0.53 0.53 0.0 0 1 51.68 200.68
  L 47.30 200.58
  Q 46.70 200.57 46.70 199.97
  Q 46.70 192.86 46.72 185.74
  C 46.73 182.28 48.06 179.35 50.89 177.22
  Q 58.16 171.75 65.91 177.99
  Q 66.34 178.34 66.76 177.99
  Z"
/>
<path fill="#e00a0a" d="
  M 106.82 201.00
  L 101.75 201.00
  C 83.27 195.94 90.94 169.73 108.66 175.32
  C 113.80 176.93 116.98 181.25 117.40 186.68
  Q 118.22 197.36 106.82 201.00
  Z
  M 104.4520 195.8592
  A 8.02 7.65 89.2 0 0 111.9893 187.7332
  A 8.02 7.65 89.2 0 0 104.2280 179.8208
  A 8.02 7.65 89.2 0 0 96.6907 187.9468
  A 8.02 7.65 89.2 0 0 104.4520 195.8592
  Z"
/>
<rect fill="#e00a0a" x="154.93" y="175.01" width="5.36" height="25.52" rx="0.31"/>
</svg>
